<svg version="1.1" id="Layer_1" xmlns="http://www.w3.org/2000/svg" xmlns:xlink="http://www.w3.org/1999/xlink" x="0px" y="0px"
	 viewBox="0 0 24 24" style="enable-background:new 0 0 24 24;" xml:space="preserve">
<path d="M17,22h-4c-0.553,0-1-0.447-1-1c0-0.552-0.448-1-1-1s-1,0.448-1,1c0,0.553-0.447,1-1,1H5c-1.654,0-3-1.346-3-3v-4
	c0-0.553,0.447-1,1-1c0.552,0,1-0.448,1-1s-0.448-1-1-1c-0.553,0-1-0.447-1-1V7c0-1.654,1.346-3,3-3h3.171C8.584,2.836,9.696,2,11,2
	s2.416,0.836,2.829,2H17c1.654,0,3,1.346,3,3v3.171c1.164,0.413,2,1.525,2,2.829s-0.836,2.416-2,2.829V19C20,20.654,18.654,22,17,22
	z M13.829,20H17c0.552,0,1-0.448,1-1v-4c0-0.553,0.447-1,1-1c0.552,0,1-0.448,1-1s-0.448-1-1-1c-0.553,0-1-0.447-1-1V7
	c0-0.552-0.448-1-1-1h-4c-0.553,0-1-0.447-1-1c0-0.552-0.448-1-1-1s-1,0.448-1,1c0,0.553-0.447,1-1,1H5C4.448,6,4,6.448,4,7v3.171
	C5.164,10.584,6,11.696,6,13s-0.836,2.416-2,2.829V19c0,0.552,0.448,1,1,1h3.171c0.413-1.164,1.525-2,2.829-2
	S13.416,18.836,13.829,20z"/>
</svg>
