<svg width="408" height="328" viewBox="0 0 408 328" fill="none" xmlns="http://www.w3.org/2000/svg">
<g filter="url(#filter0_d_258_13511)">
<rect x="32" y="16" width="344" height="264" rx="8" fill="white" fill-opacity="0.2" shape-rendering="crispEdges"/>
<path d="M68.1875 135.676L63.9395 148H61.3711L66.7227 133.781H68.3633L68.1875 135.676ZM71.7422 148L67.4844 135.676L67.2988 133.781H68.9492L74.3203 148H71.7422ZM71.5371 142.727V144.67H63.8027V142.727H71.5371ZM81.918 145.51V137.434H84.2812V148H82.0547L81.918 145.51ZM82.25 143.312L83.041 143.293C83.041 144.003 82.9629 144.657 82.8066 145.256C82.6504 145.848 82.4095 146.366 82.084 146.809C81.7585 147.245 81.3418 147.587 80.834 147.834C80.3262 148.075 79.7174 148.195 79.0078 148.195C78.4935 148.195 78.0215 148.12 77.5918 147.971C77.1621 147.821 76.791 147.59 76.4785 147.277C76.1725 146.965 75.9349 146.558 75.7656 146.057C75.5964 145.555 75.5117 144.956 75.5117 144.26V137.434H77.8652V144.279C77.8652 144.663 77.9108 144.986 78.002 145.246C78.0931 145.5 78.2168 145.705 78.373 145.861C78.5293 146.018 78.7116 146.128 78.9199 146.193C79.1283 146.258 79.3496 146.291 79.584 146.291C80.2546 146.291 80.7819 146.161 81.166 145.9C81.5566 145.633 81.8333 145.275 81.9961 144.826C82.1654 144.377 82.25 143.872 82.25 143.312ZM91.5371 137.434V139.152H85.5801V137.434H91.5371ZM87.2988 134.846H89.6523V145.08C89.6523 145.406 89.6979 145.656 89.7891 145.832C89.8867 146.001 90.0202 146.115 90.1895 146.174C90.3587 146.232 90.5573 146.262 90.7852 146.262C90.9479 146.262 91.1042 146.252 91.2539 146.232C91.4036 146.213 91.5241 146.193 91.6152 146.174L91.625 147.971C91.4297 148.029 91.2018 148.081 90.9414 148.127C90.6875 148.173 90.3945 148.195 90.0625 148.195C89.5221 148.195 89.0436 148.101 88.627 147.912C88.2103 147.717 87.8848 147.401 87.6504 146.965C87.416 146.529 87.2988 145.949 87.2988 145.227V134.846ZM92.6699 142.834V142.609C92.6699 141.848 92.7806 141.141 93.002 140.49C93.2233 139.833 93.5423 139.263 93.959 138.781C94.3822 138.293 94.8965 137.915 95.502 137.648C96.1139 137.375 96.804 137.238 97.5723 137.238C98.347 137.238 99.0371 137.375 99.6426 137.648C100.255 137.915 100.772 138.293 101.195 138.781C101.618 139.263 101.941 139.833 102.162 140.49C102.383 141.141 102.494 141.848 102.494 142.609V142.834C102.494 143.596 102.383 144.302 102.162 144.953C101.941 145.604 101.618 146.174 101.195 146.662C100.772 147.144 100.258 147.521 99.6523 147.795C99.0469 148.062 98.36 148.195 97.5918 148.195C96.8171 148.195 96.1237 148.062 95.5117 147.795C94.9062 147.521 94.3919 147.144 93.9688 146.662C93.5456 146.174 93.2233 145.604 93.002 144.953C92.7806 144.302 92.6699 143.596 92.6699 142.834ZM95.0234 142.609V142.834C95.0234 143.309 95.0723 143.758 95.1699 144.182C95.2676 144.605 95.4206 144.976 95.6289 145.295C95.8372 145.614 96.1042 145.865 96.4297 146.047C96.7552 146.229 97.1426 146.32 97.5918 146.32C98.028 146.32 98.4056 146.229 98.7246 146.047C99.0501 145.865 99.3171 145.614 99.5254 145.295C99.7337 144.976 99.8867 144.605 99.9844 144.182C100.089 143.758 100.141 143.309 100.141 142.834V142.609C100.141 142.141 100.089 141.698 99.9844 141.281C99.8867 140.858 99.7305 140.484 99.5156 140.158C99.3073 139.833 99.0404 139.579 98.7148 139.396C98.3958 139.208 98.015 139.113 97.5723 139.113C97.1296 139.113 96.7454 139.208 96.4199 139.396C96.1009 139.579 95.8372 139.833 95.6289 140.158C95.4206 140.484 95.2676 140.858 95.1699 141.281C95.0723 141.698 95.0234 142.141 95.0234 142.609ZM106.82 139.582V148H104.467V137.434H106.684L106.82 139.582ZM106.439 142.326L105.639 142.316C105.639 141.587 105.73 140.913 105.912 140.295C106.094 139.676 106.361 139.139 106.713 138.684C107.064 138.221 107.501 137.867 108.021 137.619C108.549 137.365 109.158 137.238 109.848 137.238C110.329 137.238 110.769 137.31 111.166 137.453C111.57 137.59 111.918 137.808 112.211 138.107C112.51 138.407 112.738 138.791 112.895 139.26C113.057 139.729 113.139 140.295 113.139 140.959V148H110.785V141.164C110.785 140.65 110.707 140.246 110.551 139.953C110.401 139.66 110.183 139.452 109.896 139.328C109.617 139.198 109.281 139.133 108.891 139.133C108.448 139.133 108.07 139.217 107.758 139.387C107.452 139.556 107.201 139.787 107.006 140.08C106.811 140.373 106.667 140.712 106.576 141.096C106.485 141.48 106.439 141.89 106.439 142.326ZM112.992 141.701L111.889 141.945C111.889 141.307 111.977 140.705 112.152 140.139C112.335 139.566 112.598 139.064 112.943 138.635C113.295 138.199 113.728 137.857 114.242 137.609C114.757 137.362 115.346 137.238 116.01 137.238C116.55 137.238 117.032 137.313 117.455 137.463C117.885 137.606 118.249 137.834 118.549 138.146C118.848 138.459 119.076 138.866 119.232 139.367C119.389 139.862 119.467 140.461 119.467 141.164V148H117.104V141.154C117.104 140.62 117.025 140.207 116.869 139.914C116.719 139.621 116.505 139.419 116.225 139.309C115.945 139.191 115.609 139.133 115.219 139.133C114.854 139.133 114.532 139.201 114.252 139.338C113.979 139.468 113.747 139.654 113.559 139.895C113.37 140.129 113.227 140.399 113.129 140.705C113.038 141.011 112.992 141.343 112.992 141.701ZM127.846 145.881V140.842C127.846 140.464 127.777 140.139 127.641 139.865C127.504 139.592 127.296 139.38 127.016 139.23C126.742 139.081 126.397 139.006 125.98 139.006C125.596 139.006 125.264 139.071 124.984 139.201C124.704 139.331 124.486 139.507 124.33 139.729C124.174 139.95 124.096 140.201 124.096 140.48H121.752C121.752 140.064 121.853 139.66 122.055 139.27C122.257 138.879 122.549 138.531 122.934 138.225C123.318 137.919 123.777 137.678 124.311 137.502C124.844 137.326 125.443 137.238 126.107 137.238C126.902 137.238 127.605 137.372 128.217 137.639C128.835 137.906 129.32 138.309 129.672 138.85C130.03 139.383 130.209 140.054 130.209 140.861V145.559C130.209 146.04 130.242 146.473 130.307 146.857C130.378 147.235 130.479 147.564 130.609 147.844V148H128.197C128.087 147.746 127.999 147.424 127.934 147.033C127.875 146.636 127.846 146.252 127.846 145.881ZM128.188 141.574L128.207 143.029H126.518C126.081 143.029 125.697 143.072 125.365 143.156C125.033 143.234 124.757 143.352 124.535 143.508C124.314 143.664 124.148 143.853 124.037 144.074C123.926 144.296 123.871 144.546 123.871 144.826C123.871 145.106 123.936 145.363 124.066 145.598C124.197 145.826 124.385 146.005 124.633 146.135C124.887 146.265 125.193 146.33 125.551 146.33C126.033 146.33 126.452 146.232 126.811 146.037C127.175 145.835 127.462 145.591 127.67 145.305C127.878 145.012 127.989 144.735 128.002 144.475L128.764 145.52C128.686 145.786 128.552 146.073 128.363 146.379C128.174 146.685 127.927 146.978 127.621 147.258C127.322 147.531 126.96 147.756 126.537 147.932C126.12 148.107 125.639 148.195 125.092 148.195C124.402 148.195 123.786 148.059 123.246 147.785C122.706 147.505 122.283 147.131 121.977 146.662C121.671 146.187 121.518 145.65 121.518 145.051C121.518 144.491 121.622 143.996 121.83 143.566C122.045 143.13 122.357 142.766 122.768 142.473C123.184 142.18 123.692 141.958 124.291 141.809C124.89 141.652 125.574 141.574 126.342 141.574H128.188ZM137.514 137.434V139.152H131.557V137.434H137.514ZM133.275 134.846H135.629V145.08C135.629 145.406 135.674 145.656 135.766 145.832C135.863 146.001 135.997 146.115 136.166 146.174C136.335 146.232 136.534 146.262 136.762 146.262C136.924 146.262 137.081 146.252 137.23 146.232C137.38 146.213 137.501 146.193 137.592 146.174L137.602 147.971C137.406 148.029 137.178 148.081 136.918 148.127C136.664 148.173 136.371 148.195 136.039 148.195C135.499 148.195 135.02 148.101 134.604 147.912C134.187 147.717 133.861 147.401 133.627 146.965C133.393 146.529 133.275 145.949 133.275 145.227V134.846ZM141.85 137.434V148H139.486V137.434H141.85ZM139.33 134.66C139.33 134.302 139.447 134.006 139.682 133.771C139.923 133.531 140.255 133.41 140.678 133.41C141.094 133.41 141.423 133.531 141.664 133.771C141.905 134.006 142.025 134.302 142.025 134.66C142.025 135.012 141.905 135.305 141.664 135.539C141.423 135.773 141.094 135.891 140.678 135.891C140.255 135.891 139.923 135.773 139.682 135.539C139.447 135.305 139.33 135.012 139.33 134.66ZM148.744 146.32C149.128 146.32 149.473 146.245 149.779 146.096C150.092 145.939 150.342 145.725 150.531 145.451C150.727 145.178 150.834 144.862 150.854 144.504H153.07C153.057 145.188 152.855 145.809 152.465 146.369C152.074 146.929 151.557 147.375 150.912 147.707C150.268 148.033 149.555 148.195 148.773 148.195C147.966 148.195 147.263 148.059 146.664 147.785C146.065 147.505 145.567 147.121 145.17 146.633C144.773 146.145 144.473 145.581 144.271 144.943C144.076 144.305 143.979 143.622 143.979 142.893V142.551C143.979 141.822 144.076 141.138 144.271 140.5C144.473 139.855 144.773 139.289 145.17 138.801C145.567 138.312 146.065 137.932 146.664 137.658C147.263 137.378 147.963 137.238 148.764 137.238C149.61 137.238 150.352 137.408 150.99 137.746C151.628 138.078 152.13 138.544 152.494 139.143C152.865 139.735 153.057 140.425 153.07 141.213H150.854C150.834 140.822 150.736 140.471 150.561 140.158C150.391 139.839 150.15 139.585 149.838 139.396C149.532 139.208 149.164 139.113 148.734 139.113C148.259 139.113 147.865 139.211 147.553 139.406C147.24 139.595 146.996 139.855 146.82 140.188C146.645 140.513 146.518 140.881 146.439 141.291C146.368 141.695 146.332 142.115 146.332 142.551V142.893C146.332 143.329 146.368 143.752 146.439 144.162C146.511 144.572 146.635 144.94 146.811 145.266C146.993 145.585 147.24 145.842 147.553 146.037C147.865 146.226 148.262 146.32 148.744 146.32ZM164.223 148H161.186L161.205 146.057H164.223C165.102 146.057 165.837 145.865 166.43 145.48C167.029 145.096 167.478 144.546 167.777 143.83C168.083 143.114 168.236 142.261 168.236 141.271V140.5C168.236 139.732 168.148 139.051 167.973 138.459C167.803 137.867 167.549 137.368 167.211 136.965C166.879 136.561 166.469 136.255 165.98 136.047C165.499 135.839 164.942 135.734 164.311 135.734H161.127V133.781H164.311C165.255 133.781 166.117 133.941 166.898 134.26C167.68 134.572 168.354 135.025 168.92 135.617C169.493 136.21 169.932 136.919 170.238 137.746C170.544 138.573 170.697 139.497 170.697 140.52V141.271C170.697 142.294 170.544 143.218 170.238 144.045C169.932 144.872 169.493 145.581 168.92 146.174C168.347 146.76 167.663 147.212 166.869 147.531C166.081 147.844 165.199 148 164.223 148ZM162.543 133.781V148H160.092V133.781H162.543ZM175.443 137.434V148H173.08V137.434H175.443ZM172.924 134.66C172.924 134.302 173.041 134.006 173.275 133.771C173.516 133.531 173.848 133.41 174.271 133.41C174.688 133.41 175.017 133.531 175.258 133.771C175.499 134.006 175.619 134.302 175.619 134.66C175.619 135.012 175.499 135.305 175.258 135.539C175.017 135.773 174.688 135.891 174.271 135.891C173.848 135.891 173.516 135.773 173.275 135.539C173.041 135.305 172.924 135.012 172.924 134.66ZM181.459 146.135L184.047 137.434H186.488L182.816 148H181.293L181.459 146.135ZM179.477 137.434L182.113 146.174L182.24 148H180.717L177.025 137.434H179.477ZM190.463 137.434V148H188.1V137.434H190.463ZM187.943 134.66C187.943 134.302 188.061 134.006 188.295 133.771C188.536 133.531 188.868 133.41 189.291 133.41C189.708 133.41 190.036 133.531 190.277 133.771C190.518 134.006 190.639 134.302 190.639 134.66C190.639 135.012 190.518 135.305 190.277 135.539C190.036 135.773 189.708 135.891 189.291 135.891C188.868 135.891 188.536 135.773 188.295 135.539C188.061 135.305 187.943 135.012 187.943 134.66ZM199.486 145.812V133H201.85V148H199.711L199.486 145.812ZM192.611 142.834V142.629C192.611 141.828 192.706 141.099 192.895 140.441C193.083 139.777 193.357 139.208 193.715 138.732C194.073 138.251 194.509 137.883 195.023 137.629C195.538 137.368 196.117 137.238 196.762 137.238C197.4 137.238 197.96 137.362 198.441 137.609C198.923 137.857 199.333 138.212 199.672 138.674C200.01 139.13 200.281 139.676 200.482 140.314C200.684 140.946 200.827 141.649 200.912 142.424V143.078C200.827 143.833 200.684 144.523 200.482 145.148C200.281 145.773 200.01 146.314 199.672 146.77C199.333 147.225 198.92 147.577 198.432 147.824C197.95 148.072 197.387 148.195 196.742 148.195C196.104 148.195 195.528 148.062 195.014 147.795C194.506 147.528 194.073 147.154 193.715 146.672C193.357 146.19 193.083 145.624 192.895 144.973C192.706 144.315 192.611 143.602 192.611 142.834ZM194.965 142.629V142.834C194.965 143.316 195.007 143.765 195.092 144.182C195.183 144.598 195.323 144.966 195.512 145.285C195.701 145.598 195.945 145.845 196.244 146.027C196.55 146.203 196.915 146.291 197.338 146.291C197.872 146.291 198.311 146.174 198.656 145.939C199.001 145.705 199.271 145.389 199.467 144.992C199.669 144.589 199.805 144.139 199.877 143.645V141.877C199.838 141.493 199.757 141.135 199.633 140.803C199.516 140.471 199.356 140.181 199.154 139.934C198.952 139.68 198.702 139.484 198.402 139.348C198.109 139.204 197.761 139.133 197.357 139.133C196.928 139.133 196.563 139.224 196.264 139.406C195.964 139.589 195.717 139.839 195.521 140.158C195.333 140.477 195.193 140.848 195.102 141.271C195.01 141.695 194.965 142.147 194.965 142.629ZM208.969 148.195C208.188 148.195 207.481 148.068 206.85 147.814C206.225 147.554 205.691 147.193 205.248 146.73C204.812 146.268 204.477 145.725 204.242 145.1C204.008 144.475 203.891 143.801 203.891 143.078V142.688C203.891 141.861 204.011 141.112 204.252 140.441C204.493 139.771 204.828 139.198 205.258 138.723C205.688 138.241 206.195 137.873 206.781 137.619C207.367 137.365 208.002 137.238 208.686 137.238C209.441 137.238 210.102 137.365 210.668 137.619C211.234 137.873 211.703 138.231 212.074 138.693C212.452 139.149 212.732 139.693 212.914 140.324C213.103 140.956 213.197 141.652 213.197 142.414V143.42H205.033V141.73H210.873V141.545C210.86 141.122 210.775 140.725 210.619 140.354C210.469 139.982 210.238 139.683 209.926 139.455C209.613 139.227 209.197 139.113 208.676 139.113C208.285 139.113 207.937 139.198 207.631 139.367C207.331 139.53 207.081 139.768 206.879 140.08C206.677 140.393 206.521 140.77 206.41 141.213C206.306 141.649 206.254 142.141 206.254 142.688V143.078C206.254 143.54 206.316 143.97 206.439 144.367C206.57 144.758 206.758 145.1 207.006 145.393C207.253 145.686 207.553 145.917 207.904 146.086C208.256 146.249 208.656 146.33 209.105 146.33C209.672 146.33 210.176 146.216 210.619 145.988C211.062 145.76 211.446 145.438 211.771 145.021L213.012 146.223C212.784 146.555 212.488 146.874 212.123 147.18C211.758 147.479 211.312 147.723 210.785 147.912C210.264 148.101 209.659 148.195 208.969 148.195ZM217.367 139.689V148H215.014V137.434H217.23L217.367 139.689ZM216.947 142.326L216.186 142.316C216.192 141.568 216.296 140.881 216.498 140.256C216.706 139.631 216.993 139.094 217.357 138.645C217.729 138.195 218.171 137.85 218.686 137.609C219.2 137.362 219.773 137.238 220.404 137.238C220.912 137.238 221.371 137.31 221.781 137.453C222.198 137.59 222.553 137.814 222.846 138.127C223.145 138.439 223.373 138.846 223.529 139.348C223.686 139.842 223.764 140.451 223.764 141.174V148H221.4V141.164C221.4 140.656 221.326 140.256 221.176 139.963C221.033 139.663 220.821 139.452 220.541 139.328C220.268 139.198 219.926 139.133 219.516 139.133C219.112 139.133 218.751 139.217 218.432 139.387C218.113 139.556 217.842 139.787 217.621 140.08C217.406 140.373 217.24 140.712 217.123 141.096C217.006 141.48 216.947 141.89 216.947 142.326ZM232.611 145.812V133H234.975V148H232.836L232.611 145.812ZM225.736 142.834V142.629C225.736 141.828 225.831 141.099 226.02 140.441C226.208 139.777 226.482 139.208 226.84 138.732C227.198 138.251 227.634 137.883 228.148 137.629C228.663 137.368 229.242 137.238 229.887 137.238C230.525 137.238 231.085 137.362 231.566 137.609C232.048 137.857 232.458 138.212 232.797 138.674C233.135 139.13 233.406 139.676 233.607 140.314C233.809 140.946 233.952 141.649 234.037 142.424V143.078C233.952 143.833 233.809 144.523 233.607 145.148C233.406 145.773 233.135 146.314 232.797 146.77C232.458 147.225 232.045 147.577 231.557 147.824C231.075 148.072 230.512 148.195 229.867 148.195C229.229 148.195 228.653 148.062 228.139 147.795C227.631 147.528 227.198 147.154 226.84 146.672C226.482 146.19 226.208 145.624 226.02 144.973C225.831 144.315 225.736 143.602 225.736 142.834ZM228.09 142.629V142.834C228.09 143.316 228.132 143.765 228.217 144.182C228.308 144.598 228.448 144.966 228.637 145.285C228.826 145.598 229.07 145.845 229.369 146.027C229.675 146.203 230.04 146.291 230.463 146.291C230.997 146.291 231.436 146.174 231.781 145.939C232.126 145.705 232.396 145.389 232.592 144.992C232.794 144.589 232.93 144.139 233.002 143.645V141.877C232.963 141.493 232.882 141.135 232.758 140.803C232.641 140.471 232.481 140.181 232.279 139.934C232.077 139.68 231.827 139.484 231.527 139.348C231.234 139.204 230.886 139.133 230.482 139.133C230.053 139.133 229.688 139.224 229.389 139.406C229.089 139.589 228.842 139.839 228.646 140.158C228.458 140.477 228.318 140.848 228.227 141.271C228.135 141.695 228.09 142.147 228.09 142.629ZM242.65 133.781H247.68C248.76 133.781 249.682 133.944 250.443 134.27C251.205 134.595 251.788 135.077 252.191 135.715C252.602 136.346 252.807 137.128 252.807 138.059C252.807 138.768 252.676 139.393 252.416 139.934C252.156 140.474 251.788 140.93 251.312 141.301C250.837 141.665 250.271 141.949 249.613 142.15L248.871 142.512H244.35L244.33 140.568H247.719C248.305 140.568 248.793 140.464 249.184 140.256C249.574 140.048 249.867 139.764 250.062 139.406C250.264 139.042 250.365 138.632 250.365 138.176C250.365 137.681 250.268 137.251 250.072 136.887C249.883 136.516 249.59 136.232 249.193 136.037C248.796 135.835 248.292 135.734 247.68 135.734H245.102V148H242.65V133.781ZM250.766 148L247.426 141.613L249.994 141.604L253.383 147.873V148H250.766ZM259.672 148.195C258.891 148.195 258.184 148.068 257.553 147.814C256.928 147.554 256.394 147.193 255.951 146.73C255.515 146.268 255.18 145.725 254.945 145.1C254.711 144.475 254.594 143.801 254.594 143.078V142.688C254.594 141.861 254.714 141.112 254.955 140.441C255.196 139.771 255.531 139.198 255.961 138.723C256.391 138.241 256.898 137.873 257.484 137.619C258.07 137.365 258.705 137.238 259.389 137.238C260.144 137.238 260.805 137.365 261.371 137.619C261.938 137.873 262.406 138.231 262.777 138.693C263.155 139.149 263.435 139.693 263.617 140.324C263.806 140.956 263.9 141.652 263.9 142.414V143.42H255.736V141.73H261.576V141.545C261.563 141.122 261.479 140.725 261.322 140.354C261.173 139.982 260.941 139.683 260.629 139.455C260.316 139.227 259.9 139.113 259.379 139.113C258.988 139.113 258.64 139.198 258.334 139.367C258.035 139.53 257.784 139.768 257.582 140.08C257.38 140.393 257.224 140.77 257.113 141.213C257.009 141.649 256.957 142.141 256.957 142.688V143.078C256.957 143.54 257.019 143.97 257.143 144.367C257.273 144.758 257.462 145.1 257.709 145.393C257.956 145.686 258.256 145.917 258.607 146.086C258.959 146.249 259.359 146.33 259.809 146.33C260.375 146.33 260.88 146.216 261.322 145.988C261.765 145.76 262.149 145.438 262.475 145.021L263.715 146.223C263.487 146.555 263.191 146.874 262.826 147.18C262.462 147.479 262.016 147.723 261.488 147.912C260.967 148.101 260.362 148.195 259.672 148.195ZM268.256 137.434V148H265.893V137.434H268.256ZM265.736 134.66C265.736 134.302 265.854 134.006 266.088 133.771C266.329 133.531 266.661 133.41 267.084 133.41C267.501 133.41 267.829 133.531 268.07 133.771C268.311 134.006 268.432 134.302 268.432 134.66C268.432 135.012 268.311 135.305 268.07 135.539C267.829 135.773 267.501 135.891 267.084 135.891C266.661 135.891 266.329 135.773 266.088 135.539C265.854 135.305 265.736 135.012 265.736 134.66ZM273.168 139.689V148H270.814V137.434H273.031L273.168 139.689ZM272.748 142.326L271.986 142.316C271.993 141.568 272.097 140.881 272.299 140.256C272.507 139.631 272.794 139.094 273.158 138.645C273.529 138.195 273.972 137.85 274.486 137.609C275.001 137.362 275.574 137.238 276.205 137.238C276.713 137.238 277.172 137.31 277.582 137.453C277.999 137.59 278.354 137.814 278.646 138.127C278.946 138.439 279.174 138.846 279.33 139.348C279.486 139.842 279.564 140.451 279.564 141.174V148H277.201V141.164C277.201 140.656 277.126 140.256 276.977 139.963C276.833 139.663 276.622 139.452 276.342 139.328C276.068 139.198 275.727 139.133 275.316 139.133C274.913 139.133 274.551 139.217 274.232 139.387C273.913 139.556 273.643 139.787 273.422 140.08C273.207 140.373 273.041 140.712 272.924 141.096C272.807 141.48 272.748 141.89 272.748 142.326ZM285.404 146.135L287.992 137.434H290.434L286.762 148H285.238L285.404 146.135ZM283.422 137.434L286.059 146.174L286.186 148H284.662L280.971 137.434H283.422ZM296.41 148.195C295.629 148.195 294.923 148.068 294.291 147.814C293.666 147.554 293.132 147.193 292.689 146.73C292.253 146.268 291.918 145.725 291.684 145.1C291.449 144.475 291.332 143.801 291.332 143.078V142.688C291.332 141.861 291.452 141.112 291.693 140.441C291.934 139.771 292.27 139.198 292.699 138.723C293.129 138.241 293.637 137.873 294.223 137.619C294.809 137.365 295.443 137.238 296.127 137.238C296.882 137.238 297.543 137.365 298.109 137.619C298.676 137.873 299.145 138.231 299.516 138.693C299.893 139.149 300.173 139.693 300.355 140.324C300.544 140.956 300.639 141.652 300.639 142.414V143.42H292.475V141.73H298.314V141.545C298.301 141.122 298.217 140.725 298.061 140.354C297.911 139.982 297.68 139.683 297.367 139.455C297.055 139.227 296.638 139.113 296.117 139.113C295.727 139.113 295.378 139.198 295.072 139.367C294.773 139.53 294.522 139.768 294.32 140.08C294.118 140.393 293.962 140.77 293.852 141.213C293.747 141.649 293.695 142.141 293.695 142.688V143.078C293.695 143.54 293.757 143.97 293.881 144.367C294.011 144.758 294.2 145.1 294.447 145.393C294.695 145.686 294.994 145.917 295.346 146.086C295.697 146.249 296.098 146.33 296.547 146.33C297.113 146.33 297.618 146.216 298.061 145.988C298.503 145.76 298.887 145.438 299.213 145.021L300.453 146.223C300.225 146.555 299.929 146.874 299.564 147.18C299.2 147.479 298.754 147.723 298.227 147.912C297.706 148.101 297.1 148.195 296.41 148.195ZM308.402 145.139C308.402 144.904 308.344 144.693 308.227 144.504C308.109 144.309 307.885 144.133 307.553 143.977C307.227 143.82 306.745 143.677 306.107 143.547C305.548 143.423 305.033 143.277 304.564 143.107C304.102 142.932 303.705 142.72 303.373 142.473C303.041 142.225 302.784 141.932 302.602 141.594C302.419 141.255 302.328 140.865 302.328 140.422C302.328 139.992 302.423 139.585 302.611 139.201C302.8 138.817 303.07 138.479 303.422 138.186C303.773 137.893 304.2 137.661 304.701 137.492C305.209 137.323 305.775 137.238 306.4 137.238C307.286 137.238 308.044 137.388 308.676 137.688C309.314 137.98 309.802 138.381 310.141 138.889C310.479 139.39 310.648 139.956 310.648 140.588H308.295C308.295 140.308 308.223 140.048 308.08 139.807C307.943 139.559 307.735 139.361 307.455 139.211C307.175 139.055 306.824 138.977 306.4 138.977C305.997 138.977 305.661 139.042 305.395 139.172C305.134 139.296 304.939 139.458 304.809 139.66C304.685 139.862 304.623 140.083 304.623 140.324C304.623 140.5 304.656 140.66 304.721 140.803C304.792 140.939 304.91 141.066 305.072 141.184C305.235 141.294 305.456 141.398 305.736 141.496C306.023 141.594 306.381 141.688 306.811 141.779C307.618 141.949 308.311 142.167 308.891 142.434C309.477 142.694 309.926 143.033 310.238 143.449C310.551 143.859 310.707 144.38 310.707 145.012C310.707 145.48 310.606 145.91 310.404 146.301C310.209 146.685 309.923 147.02 309.545 147.307C309.167 147.587 308.715 147.805 308.188 147.961C307.667 148.117 307.081 148.195 306.43 148.195C305.473 148.195 304.662 148.026 303.998 147.688C303.334 147.342 302.829 146.903 302.484 146.369C302.146 145.829 301.977 145.269 301.977 144.689H304.252C304.278 145.126 304.398 145.474 304.613 145.734C304.835 145.988 305.108 146.174 305.434 146.291C305.766 146.402 306.107 146.457 306.459 146.457C306.882 146.457 307.237 146.402 307.523 146.291C307.81 146.174 308.028 146.018 308.178 145.822C308.327 145.62 308.402 145.393 308.402 145.139ZM317.611 137.434V139.152H311.654V137.434H317.611ZM313.373 134.846H315.727V145.08C315.727 145.406 315.772 145.656 315.863 145.832C315.961 146.001 316.094 146.115 316.264 146.174C316.433 146.232 316.632 146.262 316.859 146.262C317.022 146.262 317.178 146.252 317.328 146.232C317.478 146.213 317.598 146.193 317.689 146.174L317.699 147.971C317.504 148.029 317.276 148.081 317.016 148.127C316.762 148.173 316.469 148.195 316.137 148.195C315.596 148.195 315.118 148.101 314.701 147.912C314.285 147.717 313.959 147.401 313.725 146.965C313.49 146.529 313.373 145.949 313.373 145.227V134.846ZM321.947 137.434V148H319.584V137.434H321.947ZM319.428 134.66C319.428 134.302 319.545 134.006 319.779 133.771C320.02 133.531 320.352 133.41 320.775 133.41C321.192 133.41 321.521 133.531 321.762 133.771C322.003 134.006 322.123 134.302 322.123 134.66C322.123 135.012 322.003 135.305 321.762 135.539C321.521 135.773 321.192 135.891 320.775 135.891C320.352 135.891 320.02 135.773 319.779 135.539C319.545 135.305 319.428 135.012 319.428 134.66ZM326.859 139.689V148H324.506V137.434H326.723L326.859 139.689ZM326.439 142.326L325.678 142.316C325.684 141.568 325.788 140.881 325.99 140.256C326.199 139.631 326.485 139.094 326.85 138.645C327.221 138.195 327.663 137.85 328.178 137.609C328.692 137.362 329.265 137.238 329.896 137.238C330.404 137.238 330.863 137.31 331.273 137.453C331.69 137.59 332.045 137.814 332.338 138.127C332.637 138.439 332.865 138.846 333.021 139.348C333.178 139.842 333.256 140.451 333.256 141.174V148H330.893V141.164C330.893 140.656 330.818 140.256 330.668 139.963C330.525 139.663 330.313 139.452 330.033 139.328C329.76 139.198 329.418 139.133 329.008 139.133C328.604 139.133 328.243 139.217 327.924 139.387C327.605 139.556 327.335 139.787 327.113 140.08C326.898 140.373 326.732 140.712 326.615 141.096C326.498 141.48 326.439 141.89 326.439 142.326ZM342.426 137.434H344.564V147.707C344.564 148.658 344.363 149.465 343.959 150.129C343.555 150.793 342.992 151.298 342.27 151.643C341.547 151.994 340.71 152.17 339.76 152.17C339.356 152.17 338.907 152.111 338.412 151.994C337.924 151.877 337.449 151.688 336.986 151.428C336.531 151.174 336.15 150.839 335.844 150.422L336.947 149.035C337.325 149.484 337.742 149.813 338.197 150.021C338.653 150.23 339.132 150.334 339.633 150.334C340.173 150.334 340.632 150.233 341.01 150.031C341.394 149.836 341.69 149.546 341.898 149.162C342.107 148.778 342.211 148.309 342.211 147.756V139.826L342.426 137.434ZM335.248 142.834V142.629C335.248 141.828 335.346 141.099 335.541 140.441C335.736 139.777 336.016 139.208 336.381 138.732C336.745 138.251 337.188 137.883 337.709 137.629C338.23 137.368 338.819 137.238 339.477 137.238C340.16 137.238 340.743 137.362 341.225 137.609C341.713 137.857 342.12 138.212 342.445 138.674C342.771 139.13 343.025 139.676 343.207 140.314C343.396 140.946 343.536 141.649 343.627 142.424V143.078C343.542 143.833 343.399 144.523 343.197 145.148C342.995 145.773 342.729 146.314 342.396 146.77C342.064 147.225 341.654 147.577 341.166 147.824C340.684 148.072 340.115 148.195 339.457 148.195C338.812 148.195 338.23 148.062 337.709 147.795C337.195 147.528 336.752 147.154 336.381 146.672C336.016 146.19 335.736 145.624 335.541 144.973C335.346 144.315 335.248 143.602 335.248 142.834ZM337.602 142.629V142.834C337.602 143.316 337.647 143.765 337.738 144.182C337.836 144.598 337.982 144.966 338.178 145.285C338.38 145.598 338.633 145.845 338.939 146.027C339.252 146.203 339.62 146.291 340.043 146.291C340.596 146.291 341.049 146.174 341.4 145.939C341.758 145.705 342.032 145.389 342.221 144.992C342.416 144.589 342.553 144.139 342.631 143.645V141.877C342.592 141.493 342.51 141.135 342.387 140.803C342.27 140.471 342.11 140.181 341.908 139.934C341.706 139.68 341.452 139.484 341.146 139.348C340.84 139.204 340.479 139.133 340.062 139.133C339.639 139.133 339.271 139.224 338.959 139.406C338.646 139.589 338.389 139.839 338.188 140.158C337.992 140.477 337.846 140.848 337.748 141.271C337.65 141.695 337.602 142.147 337.602 142.629Z" fill="#FEFEFE"/>
<path d="M89.4688 184.562L91.7266 176.625H92.8203L92.1875 179.711L89.7578 188H88.6719L89.4688 184.562ZM87.1328 176.625L88.9297 184.406L89.4688 188H88.3906L85.6328 176.625H87.1328ZM95.7422 184.398L97.5 176.625H99.0078L96.2578 188H95.1797L95.7422 184.398ZM92.9844 176.625L95.1797 184.562L95.9766 188H94.8906L92.5469 179.711L91.9062 176.625H92.9844ZM103.719 188.156C103.13 188.156 102.596 188.057 102.117 187.859C101.643 187.656 101.234 187.372 100.891 187.008C100.552 186.643 100.292 186.211 100.109 185.711C99.9271 185.211 99.8359 184.664 99.8359 184.07V183.742C99.8359 183.055 99.9375 182.443 100.141 181.906C100.344 181.365 100.62 180.906 100.969 180.531C101.318 180.156 101.714 179.872 102.156 179.68C102.599 179.487 103.057 179.391 103.531 179.391C104.135 179.391 104.656 179.495 105.094 179.703C105.536 179.911 105.898 180.203 106.18 180.578C106.461 180.948 106.669 181.385 106.805 181.891C106.94 182.391 107.008 182.938 107.008 183.531V184.18H100.695V183H105.562V182.891C105.542 182.516 105.464 182.151 105.328 181.797C105.198 181.443 104.99 181.151 104.703 180.922C104.417 180.693 104.026 180.578 103.531 180.578C103.203 180.578 102.901 180.648 102.625 180.789C102.349 180.924 102.112 181.128 101.914 181.398C101.716 181.669 101.562 182 101.453 182.391C101.344 182.781 101.289 183.232 101.289 183.742V184.07C101.289 184.471 101.344 184.849 101.453 185.203C101.568 185.552 101.732 185.859 101.945 186.125C102.164 186.391 102.427 186.599 102.734 186.75C103.047 186.901 103.401 186.977 103.797 186.977C104.307 186.977 104.74 186.872 105.094 186.664C105.448 186.456 105.758 186.177 106.023 185.828L106.898 186.523C106.716 186.799 106.484 187.062 106.203 187.312C105.922 187.562 105.576 187.766 105.164 187.922C104.758 188.078 104.276 188.156 103.719 188.156ZM114.805 186.5L116.977 179.547H117.93L117.742 180.93L115.531 188H114.602L114.805 186.5ZM113.344 179.547L115.195 186.578L115.328 188H114.352L111.898 179.547H113.344ZM120.008 186.523L121.773 179.547H123.211L120.758 188H119.789L120.008 186.523ZM118.141 179.547L120.266 186.383L120.508 188H119.586L117.312 180.914L117.125 179.547H118.141ZM126.266 179.547V188H124.812V179.547H126.266ZM124.703 177.305C124.703 177.07 124.773 176.872 124.914 176.711C125.06 176.549 125.273 176.469 125.555 176.469C125.831 176.469 126.042 176.549 126.188 176.711C126.339 176.872 126.414 177.07 126.414 177.305C126.414 177.529 126.339 177.721 126.188 177.883C126.042 178.039 125.831 178.117 125.555 178.117C125.273 178.117 125.06 178.039 124.914 177.883C124.773 177.721 124.703 177.529 124.703 177.305ZM130.156 176V188H128.703V176H130.156ZM134.047 176V188H132.594V176H134.047ZM145.32 186.555V182.203C145.32 181.87 145.253 181.581 145.117 181.336C144.987 181.086 144.789 180.893 144.523 180.758C144.258 180.622 143.93 180.555 143.539 180.555C143.174 180.555 142.854 180.617 142.578 180.742C142.307 180.867 142.094 181.031 141.938 181.234C141.786 181.438 141.711 181.656 141.711 181.891H140.266C140.266 181.589 140.344 181.289 140.5 180.992C140.656 180.695 140.88 180.427 141.172 180.188C141.469 179.943 141.823 179.75 142.234 179.609C142.651 179.464 143.115 179.391 143.625 179.391C144.24 179.391 144.781 179.495 145.25 179.703C145.724 179.911 146.094 180.227 146.359 180.648C146.63 181.065 146.766 181.589 146.766 182.219V186.156C146.766 186.438 146.789 186.737 146.836 187.055C146.888 187.372 146.964 187.646 147.062 187.875V188H145.555C145.482 187.833 145.424 187.612 145.383 187.336C145.341 187.055 145.32 186.794 145.32 186.555ZM145.57 182.875L145.586 183.891H144.125C143.714 183.891 143.346 183.924 143.023 183.992C142.701 184.055 142.43 184.151 142.211 184.281C141.992 184.411 141.826 184.576 141.711 184.773C141.596 184.966 141.539 185.193 141.539 185.453C141.539 185.719 141.599 185.961 141.719 186.18C141.839 186.398 142.018 186.573 142.258 186.703C142.503 186.828 142.802 186.891 143.156 186.891C143.599 186.891 143.99 186.797 144.328 186.609C144.667 186.422 144.935 186.193 145.133 185.922C145.336 185.651 145.445 185.388 145.461 185.133L146.078 185.828C146.042 186.047 145.943 186.289 145.781 186.555C145.62 186.82 145.404 187.076 145.133 187.32C144.867 187.56 144.549 187.76 144.18 187.922C143.815 188.078 143.404 188.156 142.945 188.156C142.372 188.156 141.87 188.044 141.438 187.82C141.01 187.596 140.677 187.297 140.438 186.922C140.203 186.542 140.086 186.117 140.086 185.648C140.086 185.195 140.174 184.797 140.352 184.453C140.529 184.104 140.784 183.815 141.117 183.586C141.451 183.352 141.852 183.174 142.32 183.055C142.789 182.935 143.312 182.875 143.891 182.875H145.57ZM154.211 186.047V179.547H155.664V188H154.281L154.211 186.047ZM154.484 184.266L155.086 184.25C155.086 184.812 155.026 185.333 154.906 185.812C154.792 186.286 154.604 186.698 154.344 187.047C154.083 187.396 153.742 187.669 153.32 187.867C152.898 188.06 152.385 188.156 151.781 188.156C151.37 188.156 150.992 188.096 150.648 187.977C150.31 187.857 150.018 187.672 149.773 187.422C149.529 187.172 149.339 186.846 149.203 186.445C149.073 186.044 149.008 185.562 149.008 185V179.547H150.453V185.016C150.453 185.396 150.495 185.711 150.578 185.961C150.667 186.206 150.784 186.401 150.93 186.547C151.081 186.688 151.247 186.786 151.43 186.844C151.617 186.901 151.81 186.93 152.008 186.93C152.622 186.93 153.109 186.812 153.469 186.578C153.828 186.339 154.086 186.018 154.242 185.617C154.404 185.211 154.484 184.76 154.484 184.266ZM161.406 179.547V180.656H156.836V179.547H161.406ZM158.383 177.492H159.828V185.906C159.828 186.193 159.872 186.409 159.961 186.555C160.049 186.701 160.164 186.797 160.305 186.844C160.445 186.891 160.596 186.914 160.758 186.914C160.878 186.914 161.003 186.904 161.133 186.883C161.268 186.857 161.37 186.836 161.438 186.82L161.445 188C161.331 188.036 161.18 188.07 160.992 188.102C160.81 188.138 160.589 188.156 160.328 188.156C159.974 188.156 159.648 188.086 159.352 187.945C159.055 187.805 158.818 187.57 158.641 187.242C158.469 186.909 158.383 186.461 158.383 185.898V177.492ZM162.562 183.867V183.688C162.562 183.078 162.651 182.513 162.828 181.992C163.005 181.466 163.26 181.01 163.594 180.625C163.927 180.234 164.331 179.932 164.805 179.719C165.279 179.5 165.81 179.391 166.398 179.391C166.992 179.391 167.526 179.5 168 179.719C168.479 179.932 168.885 180.234 169.219 180.625C169.557 181.01 169.815 181.466 169.992 181.992C170.169 182.513 170.258 183.078 170.258 183.688V183.867C170.258 184.477 170.169 185.042 169.992 185.562C169.815 186.083 169.557 186.539 169.219 186.93C168.885 187.315 168.482 187.617 168.008 187.836C167.539 188.049 167.008 188.156 166.414 188.156C165.82 188.156 165.286 188.049 164.812 187.836C164.339 187.617 163.932 187.315 163.594 186.93C163.26 186.539 163.005 186.083 162.828 185.562C162.651 185.042 162.562 184.477 162.562 183.867ZM164.008 183.688V183.867C164.008 184.289 164.057 184.688 164.156 185.062C164.255 185.432 164.404 185.76 164.602 186.047C164.805 186.333 165.057 186.56 165.359 186.727C165.661 186.888 166.013 186.969 166.414 186.969C166.81 186.969 167.156 186.888 167.453 186.727C167.755 186.56 168.005 186.333 168.203 186.047C168.401 185.76 168.549 185.432 168.648 185.062C168.753 184.688 168.805 184.289 168.805 183.867V183.688C168.805 183.271 168.753 182.878 168.648 182.508C168.549 182.133 168.398 181.802 168.195 181.516C167.997 181.224 167.747 180.995 167.445 180.828C167.148 180.661 166.799 180.578 166.398 180.578C166.003 180.578 165.654 180.661 165.352 180.828C165.055 180.995 164.805 181.224 164.602 181.516C164.404 181.802 164.255 182.133 164.156 182.508C164.057 182.878 164.008 183.271 164.008 183.688ZM173.508 181.227V188H172.055V179.547H173.43L173.508 181.227ZM173.211 183.453L172.539 183.43C172.544 182.852 172.62 182.318 172.766 181.828C172.911 181.333 173.128 180.904 173.414 180.539C173.701 180.174 174.057 179.893 174.484 179.695C174.911 179.492 175.406 179.391 175.969 179.391C176.365 179.391 176.729 179.448 177.062 179.562C177.396 179.672 177.685 179.846 177.93 180.086C178.174 180.326 178.365 180.633 178.5 181.008C178.635 181.383 178.703 181.836 178.703 182.367V188H177.258V182.438C177.258 181.995 177.182 181.641 177.031 181.375C176.885 181.109 176.677 180.917 176.406 180.797C176.135 180.672 175.818 180.609 175.453 180.609C175.026 180.609 174.669 180.685 174.383 180.836C174.096 180.987 173.867 181.195 173.695 181.461C173.523 181.727 173.398 182.031 173.32 182.375C173.247 182.714 173.211 183.073 173.211 183.453ZM178.688 182.656L177.719 182.953C177.724 182.49 177.799 182.044 177.945 181.617C178.096 181.19 178.312 180.81 178.594 180.477C178.88 180.143 179.232 179.88 179.648 179.688C180.065 179.49 180.542 179.391 181.078 179.391C181.531 179.391 181.932 179.451 182.281 179.57C182.635 179.69 182.932 179.875 183.172 180.125C183.417 180.37 183.602 180.685 183.727 181.07C183.852 181.456 183.914 181.914 183.914 182.445V188H182.461V182.43C182.461 181.956 182.385 181.589 182.234 181.328C182.089 181.062 181.88 180.878 181.609 180.773C181.344 180.664 181.026 180.609 180.656 180.609C180.339 180.609 180.057 180.664 179.812 180.773C179.568 180.883 179.362 181.034 179.195 181.227C179.029 181.414 178.901 181.63 178.812 181.875C178.729 182.12 178.688 182.38 178.688 182.656ZM191.086 186.555V182.203C191.086 181.87 191.018 181.581 190.883 181.336C190.753 181.086 190.555 180.893 190.289 180.758C190.023 180.622 189.695 180.555 189.305 180.555C188.94 180.555 188.62 180.617 188.344 180.742C188.073 180.867 187.859 181.031 187.703 181.234C187.552 181.438 187.477 181.656 187.477 181.891H186.031C186.031 181.589 186.109 181.289 186.266 180.992C186.422 180.695 186.646 180.427 186.938 180.188C187.234 179.943 187.589 179.75 188 179.609C188.417 179.464 188.88 179.391 189.391 179.391C190.005 179.391 190.547 179.495 191.016 179.703C191.49 179.911 191.859 180.227 192.125 180.648C192.396 181.065 192.531 181.589 192.531 182.219V186.156C192.531 186.438 192.555 186.737 192.602 187.055C192.654 187.372 192.729 187.646 192.828 187.875V188H191.32C191.247 187.833 191.19 187.612 191.148 187.336C191.107 187.055 191.086 186.794 191.086 186.555ZM191.336 182.875L191.352 183.891H189.891C189.479 183.891 189.112 183.924 188.789 183.992C188.466 184.055 188.195 184.151 187.977 184.281C187.758 184.411 187.591 184.576 187.477 184.773C187.362 184.966 187.305 185.193 187.305 185.453C187.305 185.719 187.365 185.961 187.484 186.18C187.604 186.398 187.784 186.573 188.023 186.703C188.268 186.828 188.568 186.891 188.922 186.891C189.365 186.891 189.755 186.797 190.094 186.609C190.432 186.422 190.701 186.193 190.898 185.922C191.102 185.651 191.211 185.388 191.227 185.133L191.844 185.828C191.807 186.047 191.708 186.289 191.547 186.555C191.385 186.82 191.169 187.076 190.898 187.32C190.633 187.56 190.315 187.76 189.945 187.922C189.581 188.078 189.169 188.156 188.711 188.156C188.138 188.156 187.635 188.044 187.203 187.82C186.776 187.596 186.443 187.297 186.203 186.922C185.969 186.542 185.852 186.117 185.852 185.648C185.852 185.195 185.94 184.797 186.117 184.453C186.294 184.104 186.549 183.815 186.883 183.586C187.216 183.352 187.617 183.174 188.086 183.055C188.555 182.935 189.078 182.875 189.656 182.875H191.336ZM198.344 179.547V180.656H193.773V179.547H198.344ZM195.32 177.492H196.766V185.906C196.766 186.193 196.81 186.409 196.898 186.555C196.987 186.701 197.102 186.797 197.242 186.844C197.383 186.891 197.534 186.914 197.695 186.914C197.815 186.914 197.94 186.904 198.07 186.883C198.206 186.857 198.307 186.836 198.375 186.82L198.383 188C198.268 188.036 198.117 188.07 197.93 188.102C197.747 188.138 197.526 188.156 197.266 188.156C196.911 188.156 196.586 188.086 196.289 187.945C195.992 187.805 195.755 187.57 195.578 187.242C195.406 186.909 195.32 186.461 195.32 185.898V177.492ZM201.609 179.547V188H200.156V179.547H201.609ZM200.047 177.305C200.047 177.07 200.117 176.872 200.258 176.711C200.404 176.549 200.617 176.469 200.898 176.469C201.174 176.469 201.385 176.549 201.531 176.711C201.682 176.872 201.758 177.07 201.758 177.305C201.758 177.529 201.682 177.721 201.531 177.883C201.385 178.039 201.174 178.117 200.898 178.117C200.617 178.117 200.404 178.039 200.258 177.883C200.117 177.721 200.047 177.529 200.047 177.305ZM207.312 186.969C207.656 186.969 207.974 186.898 208.266 186.758C208.557 186.617 208.797 186.424 208.984 186.18C209.172 185.93 209.279 185.646 209.305 185.328H210.68C210.654 185.828 210.484 186.294 210.172 186.727C209.865 187.154 209.461 187.5 208.961 187.766C208.461 188.026 207.911 188.156 207.312 188.156C206.677 188.156 206.122 188.044 205.648 187.82C205.18 187.596 204.789 187.289 204.477 186.898C204.169 186.508 203.938 186.06 203.781 185.555C203.63 185.044 203.555 184.505 203.555 183.938V183.609C203.555 183.042 203.63 182.505 203.781 182C203.938 181.49 204.169 181.039 204.477 180.648C204.789 180.258 205.18 179.951 205.648 179.727C206.122 179.503 206.677 179.391 207.312 179.391C207.974 179.391 208.552 179.526 209.047 179.797C209.542 180.062 209.93 180.427 210.211 180.891C210.497 181.349 210.654 181.87 210.68 182.453H209.305C209.279 182.104 209.18 181.789 209.008 181.508C208.841 181.227 208.612 181.003 208.32 180.836C208.034 180.664 207.698 180.578 207.312 180.578C206.87 180.578 206.497 180.667 206.195 180.844C205.898 181.016 205.661 181.25 205.484 181.547C205.312 181.839 205.188 182.164 205.109 182.523C205.036 182.878 205 183.24 205 183.609V183.938C205 184.307 205.036 184.672 205.109 185.031C205.182 185.391 205.305 185.716 205.477 186.008C205.654 186.299 205.891 186.534 206.188 186.711C206.49 186.883 206.865 186.969 207.312 186.969ZM217.289 186.555V182.203C217.289 181.87 217.221 181.581 217.086 181.336C216.956 181.086 216.758 180.893 216.492 180.758C216.227 180.622 215.898 180.555 215.508 180.555C215.143 180.555 214.823 180.617 214.547 180.742C214.276 180.867 214.062 181.031 213.906 181.234C213.755 181.438 213.68 181.656 213.68 181.891H212.234C212.234 181.589 212.312 181.289 212.469 180.992C212.625 180.695 212.849 180.427 213.141 180.188C213.438 179.943 213.792 179.75 214.203 179.609C214.62 179.464 215.083 179.391 215.594 179.391C216.208 179.391 216.75 179.495 217.219 179.703C217.693 179.911 218.062 180.227 218.328 180.648C218.599 181.065 218.734 181.589 218.734 182.219V186.156C218.734 186.438 218.758 186.737 218.805 187.055C218.857 187.372 218.932 187.646 219.031 187.875V188H217.523C217.451 187.833 217.393 187.612 217.352 187.336C217.31 187.055 217.289 186.794 217.289 186.555ZM217.539 182.875L217.555 183.891H216.094C215.682 183.891 215.315 183.924 214.992 183.992C214.669 184.055 214.398 184.151 214.18 184.281C213.961 184.411 213.794 184.576 213.68 184.773C213.565 184.966 213.508 185.193 213.508 185.453C213.508 185.719 213.568 185.961 213.688 186.18C213.807 186.398 213.987 186.573 214.227 186.703C214.471 186.828 214.771 186.891 215.125 186.891C215.568 186.891 215.958 186.797 216.297 186.609C216.635 186.422 216.904 186.193 217.102 185.922C217.305 185.651 217.414 185.388 217.43 185.133L218.047 185.828C218.01 186.047 217.911 186.289 217.75 186.555C217.589 186.82 217.372 187.076 217.102 187.32C216.836 187.56 216.518 187.76 216.148 187.922C215.784 188.078 215.372 188.156 214.914 188.156C214.341 188.156 213.839 188.044 213.406 187.82C212.979 187.596 212.646 187.297 212.406 186.922C212.172 186.542 212.055 186.117 212.055 185.648C212.055 185.195 212.143 184.797 212.32 184.453C212.497 184.104 212.753 183.815 213.086 183.586C213.419 183.352 213.82 183.174 214.289 183.055C214.758 182.935 215.281 182.875 215.859 182.875H217.539ZM222.578 176V188H221.125V176H222.578ZM226.469 176V188H225.016V176H226.469ZM231.164 187.125L233.516 179.547H235.062L231.672 189.305C231.594 189.513 231.49 189.737 231.359 189.977C231.234 190.221 231.073 190.453 230.875 190.672C230.677 190.891 230.438 191.068 230.156 191.203C229.88 191.344 229.549 191.414 229.164 191.414C229.049 191.414 228.904 191.398 228.727 191.367C228.549 191.336 228.424 191.31 228.352 191.289L228.344 190.117C228.385 190.122 228.451 190.128 228.539 190.133C228.633 190.143 228.698 190.148 228.734 190.148C229.062 190.148 229.341 190.104 229.57 190.016C229.799 189.932 229.992 189.789 230.148 189.586C230.31 189.388 230.448 189.115 230.562 188.766L231.164 187.125ZM229.438 179.547L231.633 186.109L232.008 187.633L230.969 188.164L227.859 179.547H229.438ZM241.781 180.875V188H240.336V179.547H241.742L241.781 180.875ZM244.422 179.5L244.414 180.844C244.294 180.818 244.18 180.802 244.07 180.797C243.966 180.786 243.846 180.781 243.711 180.781C243.378 180.781 243.083 180.833 242.828 180.938C242.573 181.042 242.357 181.188 242.18 181.375C242.003 181.562 241.862 181.786 241.758 182.047C241.659 182.302 241.594 182.583 241.562 182.891L241.156 183.125C241.156 182.615 241.206 182.135 241.305 181.688C241.409 181.24 241.568 180.844 241.781 180.5C241.995 180.151 242.266 179.88 242.594 179.688C242.927 179.49 243.323 179.391 243.781 179.391C243.885 179.391 244.005 179.404 244.141 179.43C244.276 179.451 244.37 179.474 244.422 179.5ZM249.109 188.156C248.521 188.156 247.987 188.057 247.508 187.859C247.034 187.656 246.625 187.372 246.281 187.008C245.943 186.643 245.682 186.211 245.5 185.711C245.318 185.211 245.227 184.664 245.227 184.07V183.742C245.227 183.055 245.328 182.443 245.531 181.906C245.734 181.365 246.01 180.906 246.359 180.531C246.708 180.156 247.104 179.872 247.547 179.68C247.99 179.487 248.448 179.391 248.922 179.391C249.526 179.391 250.047 179.495 250.484 179.703C250.927 179.911 251.289 180.203 251.57 180.578C251.852 180.948 252.06 181.385 252.195 181.891C252.331 182.391 252.398 182.938 252.398 183.531V184.18H246.086V183H250.953V182.891C250.932 182.516 250.854 182.151 250.719 181.797C250.589 181.443 250.38 181.151 250.094 180.922C249.807 180.693 249.417 180.578 248.922 180.578C248.594 180.578 248.292 180.648 248.016 180.789C247.74 180.924 247.503 181.128 247.305 181.398C247.107 181.669 246.953 182 246.844 182.391C246.734 182.781 246.68 183.232 246.68 183.742V184.07C246.68 184.471 246.734 184.849 246.844 185.203C246.958 185.552 247.122 185.859 247.336 186.125C247.555 186.391 247.818 186.599 248.125 186.75C248.438 186.901 248.792 186.977 249.188 186.977C249.698 186.977 250.13 186.872 250.484 186.664C250.839 186.456 251.148 186.177 251.414 185.828L252.289 186.523C252.107 186.799 251.875 187.062 251.594 187.312C251.312 187.562 250.966 187.766 250.555 187.922C250.148 188.078 249.667 188.156 249.109 188.156ZM255.656 179.547V188H254.203V179.547H255.656ZM254.094 177.305C254.094 177.07 254.164 176.872 254.305 176.711C254.451 176.549 254.664 176.469 254.945 176.469C255.221 176.469 255.432 176.549 255.578 176.711C255.729 176.872 255.805 177.07 255.805 177.305C255.805 177.529 255.729 177.721 255.578 177.883C255.432 178.039 255.221 178.117 254.945 178.117C254.664 178.117 254.451 178.039 254.305 177.883C254.164 177.721 254.094 177.529 254.094 177.305ZM259.422 181.352V188H257.977V179.547H259.344L259.422 181.352ZM259.078 183.453L258.477 183.43C258.482 182.852 258.568 182.318 258.734 181.828C258.901 181.333 259.135 180.904 259.438 180.539C259.74 180.174 260.099 179.893 260.516 179.695C260.938 179.492 261.404 179.391 261.914 179.391C262.331 179.391 262.706 179.448 263.039 179.562C263.372 179.672 263.656 179.849 263.891 180.094C264.13 180.339 264.312 180.656 264.438 181.047C264.562 181.432 264.625 181.904 264.625 182.461V188H263.172V182.445C263.172 182.003 263.107 181.648 262.977 181.383C262.846 181.112 262.656 180.917 262.406 180.797C262.156 180.672 261.849 180.609 261.484 180.609C261.125 180.609 260.797 180.685 260.5 180.836C260.208 180.987 259.956 181.195 259.742 181.461C259.534 181.727 259.37 182.031 259.25 182.375C259.135 182.714 259.078 183.073 259.078 183.453ZM269.391 186.695L271.703 179.547H273.18L270.141 188H269.172L269.391 186.695ZM267.461 179.547L269.844 186.734L270.008 188H269.039L265.977 179.547H267.461ZM277.969 188.156C277.38 188.156 276.846 188.057 276.367 187.859C275.893 187.656 275.484 187.372 275.141 187.008C274.802 186.643 274.542 186.211 274.359 185.711C274.177 185.211 274.086 184.664 274.086 184.07V183.742C274.086 183.055 274.188 182.443 274.391 181.906C274.594 181.365 274.87 180.906 275.219 180.531C275.568 180.156 275.964 179.872 276.406 179.68C276.849 179.487 277.307 179.391 277.781 179.391C278.385 179.391 278.906 179.495 279.344 179.703C279.786 179.911 280.148 180.203 280.43 180.578C280.711 180.948 280.919 181.385 281.055 181.891C281.19 182.391 281.258 182.938 281.258 183.531V184.18H274.945V183H279.812V182.891C279.792 182.516 279.714 182.151 279.578 181.797C279.448 181.443 279.24 181.151 278.953 180.922C278.667 180.693 278.276 180.578 277.781 180.578C277.453 180.578 277.151 180.648 276.875 180.789C276.599 180.924 276.362 181.128 276.164 181.398C275.966 181.669 275.812 182 275.703 182.391C275.594 182.781 275.539 183.232 275.539 183.742V184.07C275.539 184.471 275.594 184.849 275.703 185.203C275.818 185.552 275.982 185.859 276.195 186.125C276.414 186.391 276.677 186.599 276.984 186.75C277.297 186.901 277.651 186.977 278.047 186.977C278.557 186.977 278.99 186.872 279.344 186.664C279.698 186.456 280.008 186.177 280.273 185.828L281.148 186.523C280.966 186.799 280.734 187.062 280.453 187.312C280.172 187.562 279.826 187.766 279.414 187.922C279.008 188.078 278.526 188.156 277.969 188.156ZM287.867 185.758C287.867 185.549 287.82 185.357 287.727 185.18C287.638 184.997 287.453 184.833 287.172 184.688C286.896 184.536 286.479 184.406 285.922 184.297C285.453 184.198 285.029 184.081 284.648 183.945C284.273 183.81 283.953 183.646 283.688 183.453C283.427 183.26 283.227 183.034 283.086 182.773C282.945 182.513 282.875 182.208 282.875 181.859C282.875 181.526 282.948 181.211 283.094 180.914C283.245 180.617 283.456 180.354 283.727 180.125C284.003 179.896 284.333 179.716 284.719 179.586C285.104 179.456 285.534 179.391 286.008 179.391C286.685 179.391 287.263 179.51 287.742 179.75C288.221 179.99 288.589 180.31 288.844 180.711C289.099 181.107 289.227 181.547 289.227 182.031H287.781C287.781 181.797 287.711 181.57 287.57 181.352C287.435 181.128 287.234 180.943 286.969 180.797C286.708 180.651 286.388 180.578 286.008 180.578C285.607 180.578 285.281 180.641 285.031 180.766C284.786 180.885 284.607 181.039 284.492 181.227C284.383 181.414 284.328 181.612 284.328 181.82C284.328 181.977 284.354 182.117 284.406 182.242C284.464 182.362 284.562 182.474 284.703 182.578C284.844 182.677 285.042 182.771 285.297 182.859C285.552 182.948 285.878 183.036 286.273 183.125C286.966 183.281 287.536 183.469 287.984 183.688C288.432 183.906 288.766 184.174 288.984 184.492C289.203 184.81 289.312 185.195 289.312 185.648C289.312 186.018 289.234 186.357 289.078 186.664C288.927 186.971 288.706 187.237 288.414 187.461C288.128 187.68 287.784 187.852 287.383 187.977C286.987 188.096 286.542 188.156 286.047 188.156C285.302 188.156 284.672 188.023 284.156 187.758C283.641 187.492 283.25 187.148 282.984 186.727C282.719 186.305 282.586 185.859 282.586 185.391H284.039C284.06 185.786 284.174 186.102 284.383 186.336C284.591 186.565 284.846 186.729 285.148 186.828C285.451 186.922 285.75 186.969 286.047 186.969C286.443 186.969 286.773 186.917 287.039 186.812C287.31 186.708 287.516 186.565 287.656 186.383C287.797 186.201 287.867 185.992 287.867 185.758ZM294.75 179.547V180.656H290.18V179.547H294.75ZM291.727 177.492H293.172V185.906C293.172 186.193 293.216 186.409 293.305 186.555C293.393 186.701 293.508 186.797 293.648 186.844C293.789 186.891 293.94 186.914 294.102 186.914C294.221 186.914 294.346 186.904 294.477 186.883C294.612 186.857 294.714 186.836 294.781 186.82L294.789 188C294.674 188.036 294.523 188.07 294.336 188.102C294.154 188.138 293.932 188.156 293.672 188.156C293.318 188.156 292.992 188.086 292.695 187.945C292.398 187.805 292.161 187.57 291.984 187.242C291.812 186.909 291.727 186.461 291.727 185.898V177.492ZM303.953 179.547V180.656H299.383V179.547H303.953ZM300.93 177.492H302.375V185.906C302.375 186.193 302.419 186.409 302.508 186.555C302.596 186.701 302.711 186.797 302.852 186.844C302.992 186.891 303.143 186.914 303.305 186.914C303.424 186.914 303.549 186.904 303.68 186.883C303.815 186.857 303.917 186.836 303.984 186.82L303.992 188C303.878 188.036 303.727 188.07 303.539 188.102C303.357 188.138 303.135 188.156 302.875 188.156C302.521 188.156 302.195 188.086 301.898 187.945C301.602 187.805 301.365 187.57 301.188 187.242C301.016 186.909 300.93 186.461 300.93 185.898V177.492ZM307.094 176V188H305.648V176H307.094ZM306.75 183.453L306.148 183.43C306.154 182.852 306.24 182.318 306.406 181.828C306.573 181.333 306.807 180.904 307.109 180.539C307.411 180.174 307.771 179.893 308.188 179.695C308.609 179.492 309.076 179.391 309.586 179.391C310.003 179.391 310.378 179.448 310.711 179.562C311.044 179.672 311.328 179.849 311.562 180.094C311.802 180.339 311.984 180.656 312.109 181.047C312.234 181.432 312.297 181.904 312.297 182.461V188H310.844V182.445C310.844 182.003 310.779 181.648 310.648 181.383C310.518 181.112 310.328 180.917 310.078 180.797C309.828 180.672 309.521 180.609 309.156 180.609C308.797 180.609 308.469 180.685 308.172 180.836C307.88 180.987 307.628 181.195 307.414 181.461C307.206 181.727 307.042 182.031 306.922 182.375C306.807 182.714 306.75 183.073 306.75 183.453ZM317.969 188.156C317.38 188.156 316.846 188.057 316.367 187.859C315.893 187.656 315.484 187.372 315.141 187.008C314.802 186.643 314.542 186.211 314.359 185.711C314.177 185.211 314.086 184.664 314.086 184.07V183.742C314.086 183.055 314.188 182.443 314.391 181.906C314.594 181.365 314.87 180.906 315.219 180.531C315.568 180.156 315.964 179.872 316.406 179.68C316.849 179.487 317.307 179.391 317.781 179.391C318.385 179.391 318.906 179.495 319.344 179.703C319.786 179.911 320.148 180.203 320.43 180.578C320.711 180.948 320.919 181.385 321.055 181.891C321.19 182.391 321.258 182.938 321.258 183.531V184.18H314.945V183H319.812V182.891C319.792 182.516 319.714 182.151 319.578 181.797C319.448 181.443 319.24 181.151 318.953 180.922C318.667 180.693 318.276 180.578 317.781 180.578C317.453 180.578 317.151 180.648 316.875 180.789C316.599 180.924 316.362 181.128 316.164 181.398C315.966 181.669 315.812 182 315.703 182.391C315.594 182.781 315.539 183.232 315.539 183.742V184.07C315.539 184.471 315.594 184.849 315.703 185.203C315.818 185.552 315.982 185.859 316.195 186.125C316.414 186.391 316.677 186.599 316.984 186.75C317.297 186.901 317.651 186.977 318.047 186.977C318.557 186.977 318.99 186.872 319.344 186.664C319.698 186.456 320.008 186.177 320.273 185.828L321.148 186.523C320.966 186.799 320.734 187.062 320.453 187.312C320.172 187.562 319.826 187.766 319.414 187.922C319.008 188.078 318.526 188.156 317.969 188.156ZM67.3516 210.359V200H68.8047V212H67.4766L67.3516 210.359ZM61.6641 207.867V207.703C61.6641 207.057 61.7422 206.471 61.8984 205.945C62.0599 205.414 62.2865 204.958 62.5781 204.578C62.875 204.198 63.2266 203.906 63.6328 203.703C64.0443 203.495 64.5026 203.391 65.0078 203.391C65.5391 203.391 66.0026 203.484 66.3984 203.672C66.7995 203.854 67.138 204.122 67.4141 204.477C67.6953 204.826 67.9167 205.247 68.0781 205.742C68.2396 206.237 68.3516 206.797 68.4141 207.422V208.141C68.3568 208.76 68.2448 209.318 68.0781 209.812C67.9167 210.307 67.6953 210.729 67.4141 211.078C67.138 211.427 66.7995 211.695 66.3984 211.883C65.9974 212.065 65.5286 212.156 64.9922 212.156C64.4974 212.156 64.0443 212.049 63.6328 211.836C63.2266 211.622 62.875 211.323 62.5781 210.938C62.2865 210.552 62.0599 210.099 61.8984 209.578C61.7422 209.052 61.6641 208.482 61.6641 207.867ZM63.1172 207.703V207.867C63.1172 208.289 63.1589 208.685 63.2422 209.055C63.3307 209.424 63.4661 209.75 63.6484 210.031C63.8307 210.312 64.0625 210.534 64.3438 210.695C64.625 210.852 64.9609 210.93 65.3516 210.93C65.8307 210.93 66.224 210.828 66.5312 210.625C66.8438 210.422 67.0938 210.154 67.2812 209.82C67.4688 209.487 67.6146 209.125 67.7188 208.734V206.852C67.6562 206.565 67.5651 206.289 67.4453 206.023C67.3307 205.753 67.1797 205.513 66.9922 205.305C66.8099 205.091 66.5833 204.922 66.3125 204.797C66.0469 204.672 65.7318 204.609 65.3672 204.609C64.9714 204.609 64.6302 204.693 64.3438 204.859C64.0625 205.021 63.8307 205.245 63.6484 205.531C63.4661 205.812 63.3307 206.141 63.2422 206.516C63.1589 206.885 63.1172 207.281 63.1172 207.703ZM72.625 203.547V212H71.1719V203.547H72.625ZM71.0625 201.305C71.0625 201.07 71.1328 200.872 71.2734 200.711C71.4193 200.549 71.6328 200.469 71.9141 200.469C72.1901 200.469 72.401 200.549 72.5469 200.711C72.6979 200.872 72.7734 201.07 72.7734 201.305C72.7734 201.529 72.6979 201.721 72.5469 201.883C72.401 202.039 72.1901 202.117 71.9141 202.117C71.6328 202.117 71.4193 202.039 71.2734 201.883C71.1328 201.721 71.0625 201.529 71.0625 201.305ZM77.5156 210.695L79.8281 203.547H81.3047L78.2656 212H77.2969L77.5156 210.695ZM75.5859 203.547L77.9688 210.734L78.1328 212H77.1641L74.1016 203.547H75.5859ZM84.2656 203.547V212H82.8125V203.547H84.2656ZM82.7031 201.305C82.7031 201.07 82.7734 200.872 82.9141 200.711C83.0599 200.549 83.2734 200.469 83.5547 200.469C83.8307 200.469 84.0417 200.549 84.1875 200.711C84.3385 200.872 84.4141 201.07 84.4141 201.305C84.4141 201.529 84.3385 201.721 84.1875 201.883C84.0417 202.039 83.8307 202.117 83.5547 202.117C83.2734 202.117 83.0599 202.039 82.9141 201.883C82.7734 201.721 82.7031 201.529 82.7031 201.305ZM91.9141 210.359V200H93.3672V212H92.0391L91.9141 210.359ZM86.2266 207.867V207.703C86.2266 207.057 86.3047 206.471 86.4609 205.945C86.6224 205.414 86.849 204.958 87.1406 204.578C87.4375 204.198 87.7891 203.906 88.1953 203.703C88.6068 203.495 89.0651 203.391 89.5703 203.391C90.1016 203.391 90.5651 203.484 90.9609 203.672C91.362 203.854 91.7005 204.122 91.9766 204.477C92.2578 204.826 92.4792 205.247 92.6406 205.742C92.8021 206.237 92.9141 206.797 92.9766 207.422V208.141C92.9193 208.76 92.8073 209.318 92.6406 209.812C92.4792 210.307 92.2578 210.729 91.9766 211.078C91.7005 211.427 91.362 211.695 90.9609 211.883C90.5599 212.065 90.0911 212.156 89.5547 212.156C89.0599 212.156 88.6068 212.049 88.1953 211.836C87.7891 211.622 87.4375 211.323 87.1406 210.938C86.849 210.552 86.6224 210.099 86.4609 209.578C86.3047 209.052 86.2266 208.482 86.2266 207.867ZM87.6797 207.703V207.867C87.6797 208.289 87.7214 208.685 87.8047 209.055C87.8932 209.424 88.0286 209.75 88.2109 210.031C88.3932 210.312 88.625 210.534 88.9062 210.695C89.1875 210.852 89.5234 210.93 89.9141 210.93C90.3932 210.93 90.7865 210.828 91.0938 210.625C91.4062 210.422 91.6562 210.154 91.8438 209.82C92.0312 209.487 92.1771 209.125 92.2812 208.734V206.852C92.2188 206.565 92.1276 206.289 92.0078 206.023C91.8932 205.753 91.7422 205.513 91.5547 205.305C91.3724 205.091 91.1458 204.922 90.875 204.797C90.6094 204.672 90.2943 204.609 89.9297 204.609C89.5339 204.609 89.1927 204.693 88.9062 204.859C88.625 205.021 88.3932 205.245 88.2109 205.531C88.0286 205.812 87.8932 206.141 87.8047 206.516C87.7214 206.885 87.6797 207.281 87.6797 207.703ZM99.125 212.156C98.5365 212.156 98.0026 212.057 97.5234 211.859C97.0495 211.656 96.6406 211.372 96.2969 211.008C95.9583 210.643 95.6979 210.211 95.5156 209.711C95.3333 209.211 95.2422 208.664 95.2422 208.07V207.742C95.2422 207.055 95.3438 206.443 95.5469 205.906C95.75 205.365 96.026 204.906 96.375 204.531C96.724 204.156 97.1198 203.872 97.5625 203.68C98.0052 203.487 98.4635 203.391 98.9375 203.391C99.5417 203.391 100.062 203.495 100.5 203.703C100.943 203.911 101.305 204.203 101.586 204.578C101.867 204.948 102.076 205.385 102.211 205.891C102.346 206.391 102.414 206.938 102.414 207.531V208.18H96.1016V207H100.969V206.891C100.948 206.516 100.87 206.151 100.734 205.797C100.604 205.443 100.396 205.151 100.109 204.922C99.8229 204.693 99.4323 204.578 98.9375 204.578C98.6094 204.578 98.3073 204.648 98.0312 204.789C97.7552 204.924 97.5182 205.128 97.3203 205.398C97.1224 205.669 96.9688 206 96.8594 206.391C96.75 206.781 96.6953 207.232 96.6953 207.742V208.07C96.6953 208.471 96.75 208.849 96.8594 209.203C96.974 209.552 97.138 209.859 97.3516 210.125C97.5703 210.391 97.8333 210.599 98.1406 210.75C98.4531 210.901 98.8073 210.977 99.2031 210.977C99.7135 210.977 100.146 210.872 100.5 210.664C100.854 210.456 101.164 210.177 101.43 209.828L102.305 210.523C102.122 210.799 101.891 211.062 101.609 211.312C101.328 211.562 100.982 211.766 100.57 211.922C100.164 212.078 99.6823 212.156 99.125 212.156ZM105.547 205.352V212H104.102V203.547H105.469L105.547 205.352ZM105.203 207.453L104.602 207.43C104.607 206.852 104.693 206.318 104.859 205.828C105.026 205.333 105.26 204.904 105.562 204.539C105.865 204.174 106.224 203.893 106.641 203.695C107.062 203.492 107.529 203.391 108.039 203.391C108.456 203.391 108.831 203.448 109.164 203.562C109.497 203.672 109.781 203.849 110.016 204.094C110.255 204.339 110.438 204.656 110.562 205.047C110.688 205.432 110.75 205.904 110.75 206.461V212H109.297V206.445C109.297 206.003 109.232 205.648 109.102 205.383C108.971 205.112 108.781 204.917 108.531 204.797C108.281 204.672 107.974 204.609 107.609 204.609C107.25 204.609 106.922 204.685 106.625 204.836C106.333 204.987 106.081 205.195 105.867 205.461C105.659 205.727 105.495 206.031 105.375 206.375C105.26 206.714 105.203 207.073 105.203 207.453ZM118.273 210.359V200H119.727V212H118.398L118.273 210.359ZM112.586 207.867V207.703C112.586 207.057 112.664 206.471 112.82 205.945C112.982 205.414 113.208 204.958 113.5 204.578C113.797 204.198 114.148 203.906 114.555 203.703C114.966 203.495 115.424 203.391 115.93 203.391C116.461 203.391 116.924 203.484 117.32 203.672C117.721 203.854 118.06 204.122 118.336 204.477C118.617 204.826 118.839 205.247 119 205.742C119.161 206.237 119.273 206.797 119.336 207.422V208.141C119.279 208.76 119.167 209.318 119 209.812C118.839 210.307 118.617 210.729 118.336 211.078C118.06 211.427 117.721 211.695 117.32 211.883C116.919 212.065 116.451 212.156 115.914 212.156C115.419 212.156 114.966 212.049 114.555 211.836C114.148 211.622 113.797 211.323 113.5 210.938C113.208 210.552 112.982 210.099 112.82 209.578C112.664 209.052 112.586 208.482 112.586 207.867ZM114.039 207.703V207.867C114.039 208.289 114.081 208.685 114.164 209.055C114.253 209.424 114.388 209.75 114.57 210.031C114.753 210.312 114.984 210.534 115.266 210.695C115.547 210.852 115.883 210.93 116.273 210.93C116.753 210.93 117.146 210.828 117.453 210.625C117.766 210.422 118.016 210.154 118.203 209.82C118.391 209.487 118.536 209.125 118.641 208.734V206.852C118.578 206.565 118.487 206.289 118.367 206.023C118.253 205.753 118.102 205.513 117.914 205.305C117.732 205.091 117.505 204.922 117.234 204.797C116.969 204.672 116.654 204.609 116.289 204.609C115.893 204.609 115.552 204.693 115.266 204.859C114.984 205.021 114.753 205.245 114.57 205.531C114.388 205.812 114.253 206.141 114.164 206.516C114.081 206.885 114.039 207.281 114.039 207.703ZM126.898 209.758C126.898 209.549 126.852 209.357 126.758 209.18C126.669 208.997 126.484 208.833 126.203 208.688C125.927 208.536 125.51 208.406 124.953 208.297C124.484 208.198 124.06 208.081 123.68 207.945C123.305 207.81 122.984 207.646 122.719 207.453C122.458 207.26 122.258 207.034 122.117 206.773C121.977 206.513 121.906 206.208 121.906 205.859C121.906 205.526 121.979 205.211 122.125 204.914C122.276 204.617 122.487 204.354 122.758 204.125C123.034 203.896 123.365 203.716 123.75 203.586C124.135 203.456 124.565 203.391 125.039 203.391C125.716 203.391 126.294 203.51 126.773 203.75C127.253 203.99 127.62 204.31 127.875 204.711C128.13 205.107 128.258 205.547 128.258 206.031H126.812C126.812 205.797 126.742 205.57 126.602 205.352C126.466 205.128 126.266 204.943 126 204.797C125.74 204.651 125.419 204.578 125.039 204.578C124.638 204.578 124.312 204.641 124.062 204.766C123.818 204.885 123.638 205.039 123.523 205.227C123.414 205.414 123.359 205.612 123.359 205.82C123.359 205.977 123.385 206.117 123.438 206.242C123.495 206.362 123.594 206.474 123.734 206.578C123.875 206.677 124.073 206.771 124.328 206.859C124.583 206.948 124.909 207.036 125.305 207.125C125.997 207.281 126.568 207.469 127.016 207.688C127.464 207.906 127.797 208.174 128.016 208.492C128.234 208.81 128.344 209.195 128.344 209.648C128.344 210.018 128.266 210.357 128.109 210.664C127.958 210.971 127.737 211.237 127.445 211.461C127.159 211.68 126.815 211.852 126.414 211.977C126.018 212.096 125.573 212.156 125.078 212.156C124.333 212.156 123.703 212.023 123.188 211.758C122.672 211.492 122.281 211.148 122.016 210.727C121.75 210.305 121.617 209.859 121.617 209.391H123.07C123.091 209.786 123.206 210.102 123.414 210.336C123.622 210.565 123.878 210.729 124.18 210.828C124.482 210.922 124.781 210.969 125.078 210.969C125.474 210.969 125.805 210.917 126.07 210.812C126.341 210.708 126.547 210.565 126.688 210.383C126.828 210.201 126.898 209.992 126.898 209.758ZM136.586 211.125L138.938 203.547H140.484L137.094 213.305C137.016 213.513 136.911 213.737 136.781 213.977C136.656 214.221 136.495 214.453 136.297 214.672C136.099 214.891 135.859 215.068 135.578 215.203C135.302 215.344 134.971 215.414 134.586 215.414C134.471 215.414 134.326 215.398 134.148 215.367C133.971 215.336 133.846 215.31 133.773 215.289L133.766 214.117C133.807 214.122 133.872 214.128 133.961 214.133C134.055 214.143 134.12 214.148 134.156 214.148C134.484 214.148 134.763 214.104 134.992 214.016C135.221 213.932 135.414 213.789 135.57 213.586C135.732 213.388 135.87 213.115 135.984 212.766L136.586 211.125ZM134.859 203.547L137.055 210.109L137.43 211.633L136.391 212.164L133.281 203.547H134.859ZM141.281 207.867V207.688C141.281 207.078 141.37 206.513 141.547 205.992C141.724 205.466 141.979 205.01 142.312 204.625C142.646 204.234 143.049 203.932 143.523 203.719C143.997 203.5 144.529 203.391 145.117 203.391C145.711 203.391 146.245 203.5 146.719 203.719C147.198 203.932 147.604 204.234 147.938 204.625C148.276 205.01 148.534 205.466 148.711 205.992C148.888 206.513 148.977 207.078 148.977 207.688V207.867C148.977 208.477 148.888 209.042 148.711 209.562C148.534 210.083 148.276 210.539 147.938 210.93C147.604 211.315 147.201 211.617 146.727 211.836C146.258 212.049 145.727 212.156 145.133 212.156C144.539 212.156 144.005 212.049 143.531 211.836C143.057 211.617 142.651 211.315 142.312 210.93C141.979 210.539 141.724 210.083 141.547 209.562C141.37 209.042 141.281 208.477 141.281 207.867ZM142.727 207.688V207.867C142.727 208.289 142.776 208.688 142.875 209.062C142.974 209.432 143.122 209.76 143.32 210.047C143.523 210.333 143.776 210.56 144.078 210.727C144.38 210.888 144.732 210.969 145.133 210.969C145.529 210.969 145.875 210.888 146.172 210.727C146.474 210.56 146.724 210.333 146.922 210.047C147.12 209.76 147.268 209.432 147.367 209.062C147.471 208.688 147.523 208.289 147.523 207.867V207.688C147.523 207.271 147.471 206.878 147.367 206.508C147.268 206.133 147.117 205.802 146.914 205.516C146.716 205.224 146.466 204.995 146.164 204.828C145.867 204.661 145.518 204.578 145.117 204.578C144.721 204.578 144.372 204.661 144.07 204.828C143.773 204.995 143.523 205.224 143.32 205.516C143.122 205.802 142.974 206.133 142.875 206.508C142.776 206.878 142.727 207.271 142.727 207.688ZM155.961 210.047V203.547H157.414V212H156.031L155.961 210.047ZM156.234 208.266L156.836 208.25C156.836 208.812 156.776 209.333 156.656 209.812C156.542 210.286 156.354 210.698 156.094 211.047C155.833 211.396 155.492 211.669 155.07 211.867C154.648 212.06 154.135 212.156 153.531 212.156C153.12 212.156 152.742 212.096 152.398 211.977C152.06 211.857 151.768 211.672 151.523 211.422C151.279 211.172 151.089 210.846 150.953 210.445C150.823 210.044 150.758 209.562 150.758 209V203.547H152.203V209.016C152.203 209.396 152.245 209.711 152.328 209.961C152.417 210.206 152.534 210.401 152.68 210.547C152.831 210.688 152.997 210.786 153.18 210.844C153.367 210.901 153.56 210.93 153.758 210.93C154.372 210.93 154.859 210.812 155.219 210.578C155.578 210.339 155.836 210.018 155.992 209.617C156.154 209.211 156.234 208.76 156.234 208.266ZM167.094 212.156C166.505 212.156 165.971 212.057 165.492 211.859C165.018 211.656 164.609 211.372 164.266 211.008C163.927 210.643 163.667 210.211 163.484 209.711C163.302 209.211 163.211 208.664 163.211 208.07V207.742C163.211 207.055 163.312 206.443 163.516 205.906C163.719 205.365 163.995 204.906 164.344 204.531C164.693 204.156 165.089 203.872 165.531 203.68C165.974 203.487 166.432 203.391 166.906 203.391C167.51 203.391 168.031 203.495 168.469 203.703C168.911 203.911 169.273 204.203 169.555 204.578C169.836 204.948 170.044 205.385 170.18 205.891C170.315 206.391 170.383 206.938 170.383 207.531V208.18H164.07V207H168.938V206.891C168.917 206.516 168.839 206.151 168.703 205.797C168.573 205.443 168.365 205.151 168.078 204.922C167.792 204.693 167.401 204.578 166.906 204.578C166.578 204.578 166.276 204.648 166 204.789C165.724 204.924 165.487 205.128 165.289 205.398C165.091 205.669 164.938 206 164.828 206.391C164.719 206.781 164.664 207.232 164.664 207.742V208.07C164.664 208.471 164.719 208.849 164.828 209.203C164.943 209.552 165.107 209.859 165.32 210.125C165.539 210.391 165.802 210.599 166.109 210.75C166.422 210.901 166.776 210.977 167.172 210.977C167.682 210.977 168.115 210.872 168.469 210.664C168.823 210.456 169.133 210.177 169.398 209.828L170.273 210.523C170.091 210.799 169.859 211.062 169.578 211.312C169.297 211.562 168.951 211.766 168.539 211.922C168.133 212.078 167.651 212.156 167.094 212.156ZM177.055 210.555V206.203C177.055 205.87 176.987 205.581 176.852 205.336C176.721 205.086 176.523 204.893 176.258 204.758C175.992 204.622 175.664 204.555 175.273 204.555C174.909 204.555 174.589 204.617 174.312 204.742C174.042 204.867 173.828 205.031 173.672 205.234C173.521 205.438 173.445 205.656 173.445 205.891H172C172 205.589 172.078 205.289 172.234 204.992C172.391 204.695 172.615 204.427 172.906 204.188C173.203 203.943 173.557 203.75 173.969 203.609C174.385 203.464 174.849 203.391 175.359 203.391C175.974 203.391 176.516 203.495 176.984 203.703C177.458 203.911 177.828 204.227 178.094 204.648C178.365 205.065 178.5 205.589 178.5 206.219V210.156C178.5 210.438 178.523 210.737 178.57 211.055C178.622 211.372 178.698 211.646 178.797 211.875V212H177.289C177.216 211.833 177.159 211.612 177.117 211.336C177.076 211.055 177.055 210.794 177.055 210.555ZM177.305 206.875L177.32 207.891H175.859C175.448 207.891 175.081 207.924 174.758 207.992C174.435 208.055 174.164 208.151 173.945 208.281C173.727 208.411 173.56 208.576 173.445 208.773C173.331 208.966 173.273 209.193 173.273 209.453C173.273 209.719 173.333 209.961 173.453 210.18C173.573 210.398 173.753 210.573 173.992 210.703C174.237 210.828 174.536 210.891 174.891 210.891C175.333 210.891 175.724 210.797 176.062 210.609C176.401 210.422 176.669 210.193 176.867 209.922C177.07 209.651 177.18 209.388 177.195 209.133L177.812 209.828C177.776 210.047 177.677 210.289 177.516 210.555C177.354 210.82 177.138 211.076 176.867 211.32C176.602 211.56 176.284 211.76 175.914 211.922C175.549 212.078 175.138 212.156 174.68 212.156C174.107 212.156 173.604 212.044 173.172 211.82C172.745 211.596 172.411 211.297 172.172 210.922C171.938 210.542 171.82 210.117 171.82 209.648C171.82 209.195 171.909 208.797 172.086 208.453C172.263 208.104 172.518 207.815 172.852 207.586C173.185 207.352 173.586 207.174 174.055 207.055C174.523 206.935 175.047 206.875 175.625 206.875H177.305ZM182.219 204.875V212H180.773V203.547H182.18L182.219 204.875ZM184.859 203.5L184.852 204.844C184.732 204.818 184.617 204.802 184.508 204.797C184.404 204.786 184.284 204.781 184.148 204.781C183.815 204.781 183.521 204.833 183.266 204.938C183.01 205.042 182.794 205.188 182.617 205.375C182.44 205.562 182.299 205.786 182.195 206.047C182.096 206.302 182.031 206.583 182 206.891L181.594 207.125C181.594 206.615 181.643 206.135 181.742 205.688C181.846 205.24 182.005 204.844 182.219 204.5C182.432 204.151 182.703 203.88 183.031 203.688C183.365 203.49 183.76 203.391 184.219 203.391C184.323 203.391 184.443 203.404 184.578 203.43C184.714 203.451 184.807 203.474 184.859 203.5ZM187.641 205.352V212H186.195V203.547H187.562L187.641 205.352ZM187.297 207.453L186.695 207.43C186.701 206.852 186.786 206.318 186.953 205.828C187.12 205.333 187.354 204.904 187.656 204.539C187.958 204.174 188.318 203.893 188.734 203.695C189.156 203.492 189.622 203.391 190.133 203.391C190.549 203.391 190.924 203.448 191.258 203.562C191.591 203.672 191.875 203.849 192.109 204.094C192.349 204.339 192.531 204.656 192.656 205.047C192.781 205.432 192.844 205.904 192.844 206.461V212H191.391V206.445C191.391 206.003 191.326 205.648 191.195 205.383C191.065 205.112 190.875 204.917 190.625 204.797C190.375 204.672 190.068 204.609 189.703 204.609C189.344 204.609 189.016 204.685 188.719 204.836C188.427 204.987 188.174 205.195 187.961 205.461C187.753 205.727 187.589 206.031 187.469 206.375C187.354 206.714 187.297 207.073 187.297 207.453ZM198.625 207.867V207.688C198.625 207.078 198.714 206.513 198.891 205.992C199.068 205.466 199.323 205.01 199.656 204.625C199.99 204.234 200.393 203.932 200.867 203.719C201.341 203.5 201.872 203.391 202.461 203.391C203.055 203.391 203.589 203.5 204.062 203.719C204.542 203.932 204.948 204.234 205.281 204.625C205.62 205.01 205.878 205.466 206.055 205.992C206.232 206.513 206.32 207.078 206.32 207.688V207.867C206.32 208.477 206.232 209.042 206.055 209.562C205.878 210.083 205.62 210.539 205.281 210.93C204.948 211.315 204.544 211.617 204.07 211.836C203.602 212.049 203.07 212.156 202.477 212.156C201.883 212.156 201.349 212.049 200.875 211.836C200.401 211.617 199.995 211.315 199.656 210.93C199.323 210.539 199.068 210.083 198.891 209.562C198.714 209.042 198.625 208.477 198.625 207.867ZM200.07 207.688V207.867C200.07 208.289 200.12 208.688 200.219 209.062C200.318 209.432 200.466 209.76 200.664 210.047C200.867 210.333 201.12 210.56 201.422 210.727C201.724 210.888 202.076 210.969 202.477 210.969C202.872 210.969 203.219 210.888 203.516 210.727C203.818 210.56 204.068 210.333 204.266 210.047C204.464 209.76 204.612 209.432 204.711 209.062C204.815 208.688 204.867 208.289 204.867 207.867V207.688C204.867 207.271 204.815 206.878 204.711 206.508C204.612 206.133 204.461 205.802 204.258 205.516C204.06 205.224 203.81 204.995 203.508 204.828C203.211 204.661 202.862 204.578 202.461 204.578C202.065 204.578 201.716 204.661 201.414 204.828C201.117 204.995 200.867 205.224 200.664 205.516C200.466 205.802 200.318 206.133 200.219 206.508C200.12 206.878 200.07 207.271 200.07 207.688ZM209.578 205.352V212H208.133V203.547H209.5L209.578 205.352ZM209.234 207.453L208.633 207.43C208.638 206.852 208.724 206.318 208.891 205.828C209.057 205.333 209.292 204.904 209.594 204.539C209.896 204.174 210.255 203.893 210.672 203.695C211.094 203.492 211.56 203.391 212.07 203.391C212.487 203.391 212.862 203.448 213.195 203.562C213.529 203.672 213.812 203.849 214.047 204.094C214.286 204.339 214.469 204.656 214.594 205.047C214.719 205.432 214.781 205.904 214.781 206.461V212H213.328V206.445C213.328 206.003 213.263 205.648 213.133 205.383C213.003 205.112 212.812 204.917 212.562 204.797C212.312 204.672 212.005 204.609 211.641 204.609C211.281 204.609 210.953 204.685 210.656 204.836C210.365 204.987 210.112 205.195 209.898 205.461C209.69 205.727 209.526 206.031 209.406 206.375C209.292 206.714 209.234 207.073 209.234 207.453ZM223.32 211.125L225.672 203.547H227.219L223.828 213.305C223.75 213.513 223.646 213.737 223.516 213.977C223.391 214.221 223.229 214.453 223.031 214.672C222.833 214.891 222.594 215.068 222.312 215.203C222.036 215.344 221.706 215.414 221.32 215.414C221.206 215.414 221.06 215.398 220.883 215.367C220.706 215.336 220.581 215.31 220.508 215.289L220.5 214.117C220.542 214.122 220.607 214.128 220.695 214.133C220.789 214.143 220.854 214.148 220.891 214.148C221.219 214.148 221.497 214.104 221.727 214.016C221.956 213.932 222.148 213.789 222.305 213.586C222.466 213.388 222.604 213.115 222.719 212.766L223.32 211.125ZM221.594 203.547L223.789 210.109L224.164 211.633L223.125 212.164L220.016 203.547H221.594ZM228.016 207.867V207.688C228.016 207.078 228.104 206.513 228.281 205.992C228.458 205.466 228.714 205.01 229.047 204.625C229.38 204.234 229.784 203.932 230.258 203.719C230.732 203.5 231.263 203.391 231.852 203.391C232.445 203.391 232.979 203.5 233.453 203.719C233.932 203.932 234.339 204.234 234.672 204.625C235.01 205.01 235.268 205.466 235.445 205.992C235.622 206.513 235.711 207.078 235.711 207.688V207.867C235.711 208.477 235.622 209.042 235.445 209.562C235.268 210.083 235.01 210.539 234.672 210.93C234.339 211.315 233.935 211.617 233.461 211.836C232.992 212.049 232.461 212.156 231.867 212.156C231.273 212.156 230.74 212.049 230.266 211.836C229.792 211.617 229.385 211.315 229.047 210.93C228.714 210.539 228.458 210.083 228.281 209.562C228.104 209.042 228.016 208.477 228.016 207.867ZM229.461 207.688V207.867C229.461 208.289 229.51 208.688 229.609 209.062C229.708 209.432 229.857 209.76 230.055 210.047C230.258 210.333 230.51 210.56 230.812 210.727C231.115 210.888 231.466 210.969 231.867 210.969C232.263 210.969 232.609 210.888 232.906 210.727C233.208 210.56 233.458 210.333 233.656 210.047C233.854 209.76 234.003 209.432 234.102 209.062C234.206 208.688 234.258 208.289 234.258 207.867V207.688C234.258 207.271 234.206 206.878 234.102 206.508C234.003 206.133 233.852 205.802 233.648 205.516C233.451 205.224 233.201 204.995 232.898 204.828C232.602 204.661 232.253 204.578 231.852 204.578C231.456 204.578 231.107 204.661 230.805 204.828C230.508 204.995 230.258 205.224 230.055 205.516C229.857 205.802 229.708 206.133 229.609 206.508C229.51 206.878 229.461 207.271 229.461 207.688ZM242.695 210.047V203.547H244.148V212H242.766L242.695 210.047ZM242.969 208.266L243.57 208.25C243.57 208.812 243.51 209.333 243.391 209.812C243.276 210.286 243.089 210.698 242.828 211.047C242.568 211.396 242.227 211.669 241.805 211.867C241.383 212.06 240.87 212.156 240.266 212.156C239.854 212.156 239.477 212.096 239.133 211.977C238.794 211.857 238.503 211.672 238.258 211.422C238.013 211.172 237.823 210.846 237.688 210.445C237.557 210.044 237.492 209.562 237.492 209V203.547H238.938V209.016C238.938 209.396 238.979 209.711 239.062 209.961C239.151 210.206 239.268 210.401 239.414 210.547C239.565 210.688 239.732 210.786 239.914 210.844C240.102 210.901 240.294 210.93 240.492 210.93C241.107 210.93 241.594 210.812 241.953 210.578C242.312 210.339 242.57 210.018 242.727 209.617C242.888 209.211 242.969 208.76 242.969 208.266ZM247.797 204.875V212H246.352V203.547H247.758L247.797 204.875ZM250.438 203.5L250.43 204.844C250.31 204.818 250.195 204.802 250.086 204.797C249.982 204.786 249.862 204.781 249.727 204.781C249.393 204.781 249.099 204.833 248.844 204.938C248.589 205.042 248.372 205.188 248.195 205.375C248.018 205.562 247.878 205.786 247.773 206.047C247.674 206.302 247.609 206.583 247.578 206.891L247.172 207.125C247.172 206.615 247.221 206.135 247.32 205.688C247.424 205.24 247.583 204.844 247.797 204.5C248.01 204.151 248.281 203.88 248.609 203.688C248.943 203.49 249.339 203.391 249.797 203.391C249.901 203.391 250.021 203.404 250.156 203.43C250.292 203.451 250.385 203.474 250.438 203.5ZM257.312 203.547V212H255.859V203.547H257.312ZM255.75 201.305C255.75 201.07 255.82 200.872 255.961 200.711C256.107 200.549 256.32 200.469 256.602 200.469C256.878 200.469 257.089 200.549 257.234 200.711C257.385 200.872 257.461 201.07 257.461 201.305C257.461 201.529 257.385 201.721 257.234 201.883C257.089 202.039 256.878 202.117 256.602 202.117C256.32 202.117 256.107 202.039 255.961 201.883C255.82 201.721 255.75 201.529 255.75 201.305ZM261.078 205.352V212H259.633V203.547H261L261.078 205.352ZM260.734 207.453L260.133 207.43C260.138 206.852 260.224 206.318 260.391 205.828C260.557 205.333 260.792 204.904 261.094 204.539C261.396 204.174 261.755 203.893 262.172 203.695C262.594 203.492 263.06 203.391 263.57 203.391C263.987 203.391 264.362 203.448 264.695 203.562C265.029 203.672 265.312 203.849 265.547 204.094C265.786 204.339 265.969 204.656 266.094 205.047C266.219 205.432 266.281 205.904 266.281 206.461V212H264.828V206.445C264.828 206.003 264.763 205.648 264.633 205.383C264.503 205.112 264.312 204.917 264.062 204.797C263.812 204.672 263.505 204.609 263.141 204.609C262.781 204.609 262.453 204.685 262.156 204.836C261.865 204.987 261.612 205.195 261.398 205.461C261.19 205.727 261.026 206.031 260.906 206.375C260.792 206.714 260.734 207.073 260.734 207.453ZM271.047 210.695L273.359 203.547H274.836L271.797 212H270.828L271.047 210.695ZM269.117 203.547L271.5 210.734L271.664 212H270.695L267.633 203.547H269.117ZM279.625 212.156C279.036 212.156 278.503 212.057 278.023 211.859C277.549 211.656 277.141 211.372 276.797 211.008C276.458 210.643 276.198 210.211 276.016 209.711C275.833 209.211 275.742 208.664 275.742 208.07V207.742C275.742 207.055 275.844 206.443 276.047 205.906C276.25 205.365 276.526 204.906 276.875 204.531C277.224 204.156 277.62 203.872 278.062 203.68C278.505 203.487 278.964 203.391 279.438 203.391C280.042 203.391 280.562 203.495 281 203.703C281.443 203.911 281.805 204.203 282.086 204.578C282.367 204.948 282.576 205.385 282.711 205.891C282.846 206.391 282.914 206.938 282.914 207.531V208.18H276.602V207H281.469V206.891C281.448 206.516 281.37 206.151 281.234 205.797C281.104 205.443 280.896 205.151 280.609 204.922C280.323 204.693 279.932 204.578 279.438 204.578C279.109 204.578 278.807 204.648 278.531 204.789C278.255 204.924 278.018 205.128 277.82 205.398C277.622 205.669 277.469 206 277.359 206.391C277.25 206.781 277.195 207.232 277.195 207.742V208.07C277.195 208.471 277.25 208.849 277.359 209.203C277.474 209.552 277.638 209.859 277.852 210.125C278.07 210.391 278.333 210.599 278.641 210.75C278.953 210.901 279.307 210.977 279.703 210.977C280.214 210.977 280.646 210.872 281 210.664C281.354 210.456 281.664 210.177 281.93 209.828L282.805 210.523C282.622 210.799 282.391 211.062 282.109 211.312C281.828 211.562 281.482 211.766 281.07 211.922C280.664 212.078 280.182 212.156 279.625 212.156ZM289.523 209.758C289.523 209.549 289.477 209.357 289.383 209.18C289.294 208.997 289.109 208.833 288.828 208.688C288.552 208.536 288.135 208.406 287.578 208.297C287.109 208.198 286.685 208.081 286.305 207.945C285.93 207.81 285.609 207.646 285.344 207.453C285.083 207.26 284.883 207.034 284.742 206.773C284.602 206.513 284.531 206.208 284.531 205.859C284.531 205.526 284.604 205.211 284.75 204.914C284.901 204.617 285.112 204.354 285.383 204.125C285.659 203.896 285.99 203.716 286.375 203.586C286.76 203.456 287.19 203.391 287.664 203.391C288.341 203.391 288.919 203.51 289.398 203.75C289.878 203.99 290.245 204.31 290.5 204.711C290.755 205.107 290.883 205.547 290.883 206.031H289.438C289.438 205.797 289.367 205.57 289.227 205.352C289.091 205.128 288.891 204.943 288.625 204.797C288.365 204.651 288.044 204.578 287.664 204.578C287.263 204.578 286.938 204.641 286.688 204.766C286.443 204.885 286.263 205.039 286.148 205.227C286.039 205.414 285.984 205.612 285.984 205.82C285.984 205.977 286.01 206.117 286.062 206.242C286.12 206.362 286.219 206.474 286.359 206.578C286.5 206.677 286.698 206.771 286.953 206.859C287.208 206.948 287.534 207.036 287.93 207.125C288.622 207.281 289.193 207.469 289.641 207.688C290.089 207.906 290.422 208.174 290.641 208.492C290.859 208.81 290.969 209.195 290.969 209.648C290.969 210.018 290.891 210.357 290.734 210.664C290.583 210.971 290.362 211.237 290.07 211.461C289.784 211.68 289.44 211.852 289.039 211.977C288.643 212.096 288.198 212.156 287.703 212.156C286.958 212.156 286.328 212.023 285.812 211.758C285.297 211.492 284.906 211.148 284.641 210.727C284.375 210.305 284.242 209.859 284.242 209.391H285.695C285.716 209.786 285.831 210.102 286.039 210.336C286.247 210.565 286.503 210.729 286.805 210.828C287.107 210.922 287.406 210.969 287.703 210.969C288.099 210.969 288.43 210.917 288.695 210.812C288.966 210.708 289.172 210.565 289.312 210.383C289.453 210.201 289.523 209.992 289.523 209.758ZM296.406 203.547V204.656H291.836V203.547H296.406ZM293.383 201.492H294.828V209.906C294.828 210.193 294.872 210.409 294.961 210.555C295.049 210.701 295.164 210.797 295.305 210.844C295.445 210.891 295.596 210.914 295.758 210.914C295.878 210.914 296.003 210.904 296.133 210.883C296.268 210.857 296.37 210.836 296.438 210.82L296.445 212C296.331 212.036 296.18 212.07 295.992 212.102C295.81 212.138 295.589 212.156 295.328 212.156C294.974 212.156 294.648 212.086 294.352 211.945C294.055 211.805 293.818 211.57 293.641 211.242C293.469 210.909 293.383 210.461 293.383 209.898V201.492ZM299.539 205.227V212H298.086V203.547H299.461L299.539 205.227ZM299.242 207.453L298.57 207.43C298.576 206.852 298.651 206.318 298.797 205.828C298.943 205.333 299.159 204.904 299.445 204.539C299.732 204.174 300.089 203.893 300.516 203.695C300.943 203.492 301.438 203.391 302 203.391C302.396 203.391 302.76 203.448 303.094 203.562C303.427 203.672 303.716 203.846 303.961 204.086C304.206 204.326 304.396 204.633 304.531 205.008C304.667 205.383 304.734 205.836 304.734 206.367V212H303.289V206.438C303.289 205.995 303.214 205.641 303.062 205.375C302.917 205.109 302.708 204.917 302.438 204.797C302.167 204.672 301.849 204.609 301.484 204.609C301.057 204.609 300.701 204.685 300.414 204.836C300.128 204.987 299.898 205.195 299.727 205.461C299.555 205.727 299.43 206.031 299.352 206.375C299.279 206.714 299.242 207.073 299.242 207.453ZM304.719 206.656L303.75 206.953C303.755 206.49 303.831 206.044 303.977 205.617C304.128 205.19 304.344 204.81 304.625 204.477C304.911 204.143 305.263 203.88 305.68 203.688C306.096 203.49 306.573 203.391 307.109 203.391C307.562 203.391 307.964 203.451 308.312 203.57C308.667 203.69 308.964 203.875 309.203 204.125C309.448 204.37 309.633 204.685 309.758 205.07C309.883 205.456 309.945 205.914 309.945 206.445V212H308.492V206.43C308.492 205.956 308.417 205.589 308.266 205.328C308.12 205.062 307.911 204.878 307.641 204.773C307.375 204.664 307.057 204.609 306.688 204.609C306.37 204.609 306.089 204.664 305.844 204.773C305.599 204.883 305.393 205.034 305.227 205.227C305.06 205.414 304.932 205.63 304.844 205.875C304.76 206.12 304.719 206.38 304.719 206.656ZM315.641 212.156C315.052 212.156 314.518 212.057 314.039 211.859C313.565 211.656 313.156 211.372 312.812 211.008C312.474 210.643 312.214 210.211 312.031 209.711C311.849 209.211 311.758 208.664 311.758 208.07V207.742C311.758 207.055 311.859 206.443 312.062 205.906C312.266 205.365 312.542 204.906 312.891 204.531C313.24 204.156 313.635 203.872 314.078 203.68C314.521 203.487 314.979 203.391 315.453 203.391C316.057 203.391 316.578 203.495 317.016 203.703C317.458 203.911 317.82 204.203 318.102 204.578C318.383 204.948 318.591 205.385 318.727 205.891C318.862 206.391 318.93 206.938 318.93 207.531V208.18H312.617V207H317.484V206.891C317.464 206.516 317.385 206.151 317.25 205.797C317.12 205.443 316.911 205.151 316.625 204.922C316.339 204.693 315.948 204.578 315.453 204.578C315.125 204.578 314.823 204.648 314.547 204.789C314.271 204.924 314.034 205.128 313.836 205.398C313.638 205.669 313.484 206 313.375 206.391C313.266 206.781 313.211 207.232 313.211 207.742V208.07C313.211 208.471 313.266 208.849 313.375 209.203C313.49 209.552 313.654 209.859 313.867 210.125C314.086 210.391 314.349 210.599 314.656 210.75C314.969 210.901 315.323 210.977 315.719 210.977C316.229 210.977 316.661 210.872 317.016 210.664C317.37 210.456 317.68 210.177 317.945 209.828L318.82 210.523C318.638 210.799 318.406 211.062 318.125 211.312C317.844 211.562 317.497 211.766 317.086 211.922C316.68 212.078 316.198 212.156 315.641 212.156ZM322.062 205.352V212H320.617V203.547H321.984L322.062 205.352ZM321.719 207.453L321.117 207.43C321.122 206.852 321.208 206.318 321.375 205.828C321.542 205.333 321.776 204.904 322.078 204.539C322.38 204.174 322.74 203.893 323.156 203.695C323.578 203.492 324.044 203.391 324.555 203.391C324.971 203.391 325.346 203.448 325.68 203.562C326.013 203.672 326.297 203.849 326.531 204.094C326.771 204.339 326.953 204.656 327.078 205.047C327.203 205.432 327.266 205.904 327.266 206.461V212H325.812V206.445C325.812 206.003 325.747 205.648 325.617 205.383C325.487 205.112 325.297 204.917 325.047 204.797C324.797 204.672 324.49 204.609 324.125 204.609C323.766 204.609 323.438 204.685 323.141 204.836C322.849 204.987 322.596 205.195 322.383 205.461C322.174 205.727 322.01 206.031 321.891 206.375C321.776 206.714 321.719 207.073 321.719 207.453ZM333 203.547V204.656H328.43V203.547H333ZM329.977 201.492H331.422V209.906C331.422 210.193 331.466 210.409 331.555 210.555C331.643 210.701 331.758 210.797 331.898 210.844C332.039 210.891 332.19 210.914 332.352 210.914C332.471 210.914 332.596 210.904 332.727 210.883C332.862 210.857 332.964 210.836 333.031 210.82L333.039 212C332.924 212.036 332.773 212.07 332.586 212.102C332.404 212.138 332.182 212.156 331.922 212.156C331.568 212.156 331.242 212.086 330.945 211.945C330.648 211.805 330.411 211.57 330.234 211.242C330.062 210.909 329.977 210.461 329.977 209.898V201.492ZM339.617 209.758C339.617 209.549 339.57 209.357 339.477 209.18C339.388 208.997 339.203 208.833 338.922 208.688C338.646 208.536 338.229 208.406 337.672 208.297C337.203 208.198 336.779 208.081 336.398 207.945C336.023 207.81 335.703 207.646 335.438 207.453C335.177 207.26 334.977 207.034 334.836 206.773C334.695 206.513 334.625 206.208 334.625 205.859C334.625 205.526 334.698 205.211 334.844 204.914C334.995 204.617 335.206 204.354 335.477 204.125C335.753 203.896 336.083 203.716 336.469 203.586C336.854 203.456 337.284 203.391 337.758 203.391C338.435 203.391 339.013 203.51 339.492 203.75C339.971 203.99 340.339 204.31 340.594 204.711C340.849 205.107 340.977 205.547 340.977 206.031H339.531C339.531 205.797 339.461 205.57 339.32 205.352C339.185 205.128 338.984 204.943 338.719 204.797C338.458 204.651 338.138 204.578 337.758 204.578C337.357 204.578 337.031 204.641 336.781 204.766C336.536 204.885 336.357 205.039 336.242 205.227C336.133 205.414 336.078 205.612 336.078 205.82C336.078 205.977 336.104 206.117 336.156 206.242C336.214 206.362 336.312 206.474 336.453 206.578C336.594 206.677 336.792 206.771 337.047 206.859C337.302 206.948 337.628 207.036 338.023 207.125C338.716 207.281 339.286 207.469 339.734 207.688C340.182 207.906 340.516 208.174 340.734 208.492C340.953 208.81 341.062 209.195 341.062 209.648C341.062 210.018 340.984 210.357 340.828 210.664C340.677 210.971 340.456 211.237 340.164 211.461C339.878 211.68 339.534 211.852 339.133 211.977C338.737 212.096 338.292 212.156 337.797 212.156C337.052 212.156 336.422 212.023 335.906 211.758C335.391 211.492 335 211.148 334.734 210.727C334.469 210.305 334.336 209.859 334.336 209.391H335.789C335.81 209.786 335.924 210.102 336.133 210.336C336.341 210.565 336.596 210.729 336.898 210.828C337.201 210.922 337.5 210.969 337.797 210.969C338.193 210.969 338.523 210.917 338.789 210.812C339.06 210.708 339.266 210.565 339.406 210.383C339.547 210.201 339.617 209.992 339.617 209.758ZM342.984 211.234C342.984 210.99 343.06 210.784 343.211 210.617C343.367 210.445 343.591 210.359 343.883 210.359C344.174 210.359 344.396 210.445 344.547 210.617C344.703 210.784 344.781 210.99 344.781 211.234C344.781 211.474 344.703 211.677 344.547 211.844C344.396 212.01 344.174 212.094 343.883 212.094C343.591 212.094 343.367 212.01 343.211 211.844C343.06 211.677 342.984 211.474 342.984 211.234Z" fill="#FEFEFE"/>
<path opacity="0.4" d="M219.166 69.5167V78.15C219.166 85.43 212.376 91.3333 204 91.3333C195.623 91.3333 188.833 85.43 188.833 78.15V69.5167C188.833 76.7967 195.623 82 204 82C212.376 82 219.166 76.7967 219.166 69.5167Z" stroke="#1DB5FF" stroke-width="2" stroke-linecap="round" stroke-linejoin="round"/>
<path d="M219.166 57.85C219.166 59.9734 218.583 61.9334 217.556 63.6134C215.06 67.72 209.926 70.3334 204 70.3334C198.073 70.3334 192.94 67.72 190.443 63.6134C189.416 61.9334 188.833 59.9734 188.833 57.85C188.833 54.21 190.536 50.92 193.266 48.54C196.02 46.1367 199.8 44.6667 204 44.6667C208.2 44.6667 211.98 46.1367 214.733 48.5167C217.463 50.92 219.166 54.21 219.166 57.85Z" stroke="#1DB5FF" stroke-width="2" stroke-linecap="round" stroke-linejoin="round"/>
<path d="M219.166 57.85V69.5167C219.166 76.7967 212.376 82 204 82C195.623 82 188.833 76.7967 188.833 69.5167V57.85C188.833 50.57 195.623 44.6667 204 44.6667C208.2 44.6667 211.98 46.1367 214.733 48.5167C217.463 50.92 219.166 54.21 219.166 57.85Z" stroke="#1DB5FF" stroke-width="2" stroke-linecap="round" stroke-linejoin="round"/>
</g>
<defs>
<filter id="filter0_d_258_13511" x="0" y="0" width="408" height="328" filterUnits="userSpaceOnUse" color-interpolation-filters="sRGB">
<feFlood flood-opacity="0" result="BackgroundImageFix"/>
<feColorMatrix in="SourceAlpha" type="matrix" values="0 0 0 0 0 0 0 0 0 0 0 0 0 0 0 0 0 0 127 0" result="hardAlpha"/>
<feOffset dy="16"/>
<feGaussianBlur stdDeviation="16"/>
<feComposite in2="hardAlpha" operator="out"/>
<feColorMatrix type="matrix" values="0 0 0 0 0.133333 0 0 0 0 0.133333 0 0 0 0 0.133333 0 0 0 0.08 0"/>
<feBlend mode="normal" in2="BackgroundImageFix" result="effect1_dropShadow_258_13511"/>
<feBlend mode="normal" in="SourceGraphic" in2="effect1_dropShadow_258_13511" result="shape"/>
</filter>
</defs>
</svg>
