<?xml version="1.0" encoding="utf-8"?>
<!-- Generator: Adobe Illustrator 24.3.0, SVG Export Plug-In . SVG Version: 6.00 Build 0)  -->
<svg version="1.1" id="Layer_1" xmlns="http://www.w3.org/2000/svg" xmlns:xlink="http://www.w3.org/1999/xlink" x="0px" y="0px"
	 viewBox="0 0 408 328" style="enable-background:new 0 0 408 328;" xml:space="preserve">
<style type="text/css">
	.st0{opacity:0.4;fill:none;stroke:#1DB5FF;stroke-width:2;stroke-linecap:round;stroke-linejoin:round;enable-background:new    ;}
	.st1{fill:none;stroke:#1DB5FF;stroke-width:2;stroke-linecap:round;stroke-linejoin:round;}
</style>
<g>
	<path class="st0" d="M171,131.3v8.5c0,7.2-6.7,13-15,13c-8.3,0-15-5.8-15-13v-8.5c0,7.2,6.7,12.3,15,12.3
		C164.3,143.6,171,138.5,171,131.3z"/>
	<path class="st1" d="M171.2,119.5c0,2.1-0.6,4.1-1.6,5.8c-2.5,4.1-7.6,6.7-13.6,6.7c-5.9,0-11.1-2.6-13.6-6.7
		c-1-1.7-1.6-3.6-1.6-5.8c0-3.6,1.7-6.9,4.4-9.3c2.8-2.4,6.5-3.9,10.7-3.9s8,1.5,10.7,3.9C169.5,112.6,171.2,115.9,171.2,119.5z"/>
	<path class="st1" d="M171,119.6v11.5c0,7.2-6.7,12.3-15,12.3c-8.3,0-15-5.1-15-12.3v-11.5c0-7.2,6.7-13,15-13
		c4.2,0,7.9,1.5,10.6,3.8C169.3,112.7,171,116,171,119.6z"/>
</g>
</svg>
