<?xml version="1.0" encoding="utf-8"?>
<!-- Generator: Adobe Illustrator 24.3.0, SVG Export Plug-In . SVG Version: 6.00 Build 0)  -->
<svg version="1.1" id="Layer_1" xmlns="http://www.w3.org/2000/svg" xmlns:xlink="http://www.w3.org/1999/xlink" x="0px" y="0px"
	 viewBox="0 0 179 56" style="enable-background:new 0 0 179 56;" xml:space="preserve">
<style type="text/css">
	.st0{fill:#1DB5FF;}
	.st1{fill:#FBFBFB;}
</style>
<path class="st0" d="M8.6,0h38.8C52.1,0,56,3.9,56,8.6v38.8c0,4.8-3.9,8.6-8.6,8.6H8.6C3.9,56,0,52.1,0,47.4V8.6C0,3.9,3.9,0,8.6,0z
	"/>
<path class="st1" d="M28,22.4c-8.8,0-14,6.3-14,13.4c0,7.2,5.2,13.5,14,13.5c8.8,0,14-6.3,14-13.5C42,28.7,36.9,22.4,28,22.4z
	 M28,40.8c-2.8,0-4.4-2.2-4.4-5s1.6-5,4.4-5c2.8,0,4.5,2.2,4.5,5S30.9,40.8,28,40.8z"/>
<path class="st1" d="M42.1,16.2c-3.6,3.7-8.6,5.2-14.1,5.1c-5.5-0.1-10.4-1.7-13.9-5.6l6.8-7c1.8,2,4.4,3.3,7.2,3.4
	c2.9,0.1,5.5-1.1,7.4-3.1L42.1,16.2L42.1,16.2z"/>
<path class="st0" d="M83.5,34.7l-4.1-9.3h-3.3v9.3h-9V5.2h15.9c6.9,0,10.7,4.6,10.7,10.1c0,5.1-3,7.8-5.3,8.9l5.4,10.4L83.5,34.7
	L83.5,34.7z M84.6,15.3c0-1.6-1.4-2.3-2.9-2.3h-5.5v4.6h5.5C83.2,17.6,84.6,16.9,84.6,15.3z"/>
<path class="st0" d="M111,34.1v-2.4c-1.2,1.4-3.6,3-7.3,3c-5,0-7.1-3-7.1-6.8V12.2h8v12.1c0,2.2,1.2,3.1,3.1,3.1
	c1.8,0,2.7-1,3.4-1.7V12.2h8v21.9L111,34.1L111,34.1z"/>
<path class="st0" d="M121.8,34.7V5.2H135c9.3,0,16.2,5.3,16.2,14.7c0,9.4-6.9,14.7-16.2,14.7L121.8,34.7L121.8,34.7z M142.1,19.9
	c0-4-2.3-6.9-7.1-6.9h-4.3v13.9h4.3C139.5,26.9,142.1,23.6,142.1,19.9z"/>
<path class="st0" d="M154,23.4c0-6,4.4-11.2,11.9-11.2c7.5,0,11.9,5.2,11.9,11.2c0,6-4.4,11.2-11.9,11.2
	C158.3,34.7,154,29.4,154,23.4z M169.7,23.4c0-2.3-1.4-4.2-3.8-4.2c-2.5,0-3.8,1.8-3.8,4.2c0,2.3,1.4,4.2,3.8,4.2
	C168.3,27.6,169.7,25.8,169.7,23.4z"/>
<path class="st0" d="M76.2,50.8l-2-7.8l-2,7.8h-2l-3-10.5h2l2,8.1l2.2-8.1h1.5l2.2,8.1l2-8.1h2.1l-3,10.5H76.2z"/>
<path class="st0" d="M92.4,50.8V40.2h7v1.6h-5.2v2.7h5.1v1.6h-5.1v2.9h5.2v1.6H92.4z"/>
<path class="st0" d="M119,50.8l-0.8-2h-4.8l-0.8,2h-2.1l4.1-10.5h2.3l4.1,10.5H119z M115.9,42.1l-1.9,5h3.8L115.9,42.1z"/>
<path class="st0" d="M132.3,50.8V40.2h1.8v8.9h4.5v1.6H132.3z"/>
<path class="st0" d="M153.1,50.8v-8.9h-3.3v-1.6h8.4v1.6h-3.3v8.9H153.1z"/>
<path class="st0" d="M176.7,50.8v-4.6h-5.4v4.6h-1.8V40.2h1.8v4.3h5.4v-4.3h1.8v10.5H176.7z"/>
</svg>
