<svg xmlns="http://www.w3.org/2000/svg" width="121" height="40"><g fill="#1db5ff"><rect width="30" height="8"/><rect width="30" height="8" x="30"/><rect width="30" height="8" fill="#000000" x="60"/><rect width="30" height="8" fill="#000000" x="90"/><rect width="30" height="8" fill="#01001a" y="8"/><rect width="30" height="8" x="30" y="8"/><rect width="30" height="8" fill="#000000" x="60" y="8"/><rect width="30" height="8" x="90" y="8"/><rect width="30" height="8" fill="#01001a" y="16"/><rect width="30" height="8" x="30" y="16"/><rect width="30" height="8" fill="#000000" x="60" y="16"/><rect width="30" height="8" x="90" y="16"/><rect width="30" height="8" fill="#1688c6" y="24"/><rect width="30" height="8" x="30" y="24"/><rect width="30" height="8" fill="#000000" x="60" y="24"/><rect width="30" height="8" x="90" y="24"/><rect width="30" height="8" fill="#01001a" y="32"/><rect width="30" height="8" x="30" y="32"/><rect width="30" height="8" fill="#000000" x="60" y="32"/><rect width="30" height="8" x="90" y="32"/></g></svg>